<?xml version="1.0" encoding="utf-8" standalone="no"?>
<!DOCTYPE svg PUBLIC "-//W3C//DTD SVG 1.1//EN"
  "http://www.w3.org/Graphics/SVG/1.1/DTD/svg11.dtd">
<svg xmlns:xlink="http://www.w3.org/1999/xlink" width="576pt" height="288pt" viewBox="0 0 576 288" xmlns="http://www.w3.org/2000/svg" version="1.1">
 <metadata>
  <rdf:RDF xmlns:dc="http://purl.org/dc/elements/1.1/" xmlns:cc="http://creativecommons.org/ns#" xmlns:rdf="http://www.w3.org/1999/02/22-rdf-syntax-ns#">
   <cc:Work>
    <dc:type rdf:resource="http://purl.org/dc/dcmitype/StillImage"/>
    <dc:date>2025-04-07T13:58:17.333434</dc:date>
    <dc:format>image/svg+xml</dc:format>
    <dc:creator>
     <cc:Agent>
      <dc:title>Matplotlib v3.7.1, https://matplotlib.org/</dc:title>
     </cc:Agent>
    </dc:creator>
   </cc:Work>
  </rdf:RDF>
 </metadata>
 <defs>
  <style type="text/css">*{stroke-linejoin: round; stroke-linecap: butt}</style>
 </defs>
 <g id="figure_1">
  <g id="patch_1">
   <path d="M 0 288 
L 576 288 
L 576 0 
L 0 0 
L 0 288 
z
" style="fill: none"/>
  </g>
  <g id="axes_1">
   <g id="patch_2">
    <path d="M 60.925 242.2 
L 552.575 242.2 
L 552.575 42.8 
L 60.925 42.8 
z
" style="fill: #ffffff"/>
   </g>
   <g id="patch_3">
    <path d="M 61.402993 242.2 
L 63.859536 242.2 
L 63.859536 54.863833 
L 61.402993 54.863833 
z
" clip-path="url(#p90bfe55952)" style="fill: #87ceeb; opacity: 0.7; stroke: #000000; stroke-linejoin: miter"/>
   </g>
   <g id="patch_4">
    <path d="M 63.859536 242.2 
L 66.316079 242.2 
L 66.316079 96.303826 
L 63.859536 96.303826 
z
" clip-path="url(#p90bfe55952)" style="fill: #87ceeb; opacity: 0.7; stroke: #000000; stroke-linejoin: miter"/>
   </g>
   <g id="patch_5">
    <path d="M 66.316079 242.2 
L 68.772622 242.2 
L 68.772622 120.962334 
L 66.316079 120.962334 
z
" clip-path="url(#p90bfe55952)" style="fill: #87ceeb; opacity: 0.7; stroke: #000000; stroke-linejoin: miter"/>
   </g>
   <g id="patch_6">
    <path d="M 68.772622 242.2 
L 71.229165 242.2 
L 71.229165 121.304813 
L 68.772622 121.304813 
z
" clip-path="url(#p90bfe55952)" style="fill: #87ceeb; opacity: 0.7; stroke: #000000; stroke-linejoin: miter"/>
   </g>
   <g id="patch_7">
    <path d="M 71.229165 242.2 
L 73.685707 242.2 
L 73.685707 105.379527 
L 71.229165 105.379527 
z
" clip-path="url(#p90bfe55952)" style="fill: #87ceeb; opacity: 0.7; stroke: #000000; stroke-linejoin: miter"/>
   </g>
   <g id="patch_8">
    <path d="M 73.685707 242.2 
L 76.14225 242.2 
L 76.14225 100.071098 
L 73.685707 100.071098 
z
" clip-path="url(#p90bfe55952)" style="fill: #87ceeb; opacity: 0.7; stroke: #000000; stroke-linejoin: miter"/>
   </g>
   <g id="patch_9">
    <path d="M 76.14225 242.2 
L 78.598793 242.2 
L 78.598793 89.967959 
L 76.14225 89.967959 
z
" clip-path="url(#p90bfe55952)" style="fill: #87ceeb; opacity: 0.7; stroke: #000000; stroke-linejoin: miter"/>
   </g>
   <g id="patch_10">
    <path d="M 78.598793 242.2 
L 81.055336 242.2 
L 81.055336 96.475065 
L 78.598793 96.475065 
z
" clip-path="url(#p90bfe55952)" style="fill: #87ceeb; opacity: 0.7; stroke: #000000; stroke-linejoin: miter"/>
   </g>
   <g id="patch_11">
    <path d="M 81.055336 242.2 
L 83.511879 242.2 
L 83.511879 90.139199 
L 81.055336 90.139199 
z
" clip-path="url(#p90bfe55952)" style="fill: #87ceeb; opacity: 0.7; stroke: #000000; stroke-linejoin: miter"/>
   </g>
   <g id="patch_12">
    <path d="M 83.511879 242.2 
L 85.968422 242.2 
L 85.968422 78.323664 
L 83.511879 78.323664 
z
" clip-path="url(#p90bfe55952)" style="fill: #87ceeb; opacity: 0.7; stroke: #000000; stroke-linejoin: miter"/>
   </g>
   <g id="patch_13">
    <path d="M 85.968422 242.2 
L 88.424965 242.2 
L 88.424965 71.816557 
L 85.968422 71.816557 
z
" clip-path="url(#p90bfe55952)" style="fill: #87ceeb; opacity: 0.7; stroke: #000000; stroke-linejoin: miter"/>
   </g>
   <g id="patch_14">
    <path d="M 88.424965 242.2 
L 90.881508 242.2 
L 90.881508 83.974572 
L 88.424965 83.974572 
z
" clip-path="url(#p90bfe55952)" style="fill: #87ceeb; opacity: 0.7; stroke: #000000; stroke-linejoin: miter"/>
   </g>
   <g id="patch_15">
    <path d="M 90.881508 242.2 
L 93.338051 242.2 
L 93.338051 83.118373 
L 90.881508 83.118373 
z
" clip-path="url(#p90bfe55952)" style="fill: #87ceeb; opacity: 0.7; stroke: #000000; stroke-linejoin: miter"/>
   </g>
   <g id="patch_16">
    <path d="M 93.338051 242.2 
L 95.794593 242.2 
L 95.794593 68.905483 
L 93.338051 68.905483 
z
" clip-path="url(#p90bfe55952)" style="fill: #87ceeb; opacity: 0.7; stroke: #000000; stroke-linejoin: miter"/>
   </g>
   <g id="patch_17">
    <path d="M 95.794593 242.2 
L 98.251136 242.2 
L 98.251136 73.700193 
L 95.794593 73.700193 
z
" clip-path="url(#p90bfe55952)" style="fill: #87ceeb; opacity: 0.7; stroke: #000000; stroke-linejoin: miter"/>
   </g>
   <g id="patch_18">
    <path d="M 98.251136 242.2 
L 100.707679 242.2 
L 100.707679 63.254575 
L 98.251136 63.254575 
z
" clip-path="url(#p90bfe55952)" style="fill: #87ceeb; opacity: 0.7; stroke: #000000; stroke-linejoin: miter"/>
   </g>
   <g id="patch_19">
    <path d="M 100.707679 242.2 
L 103.164222 242.2 
L 103.164222 71.474078 
L 100.707679 71.474078 
z
" clip-path="url(#p90bfe55952)" style="fill: #87ceeb; opacity: 0.7; stroke: #000000; stroke-linejoin: miter"/>
   </g>
   <g id="patch_20">
    <path d="M 103.164222 242.2 
L 105.620765 242.2 
L 105.620765 72.501516 
L 103.164222 72.501516 
z
" clip-path="url(#p90bfe55952)" style="fill: #87ceeb; opacity: 0.7; stroke: #000000; stroke-linejoin: miter"/>
   </g>
   <g id="patch_21">
    <path d="M 105.620765 242.2 
L 108.077308 242.2 
L 108.077308 65.994409 
L 105.620765 65.994409 
z
" clip-path="url(#p90bfe55952)" style="fill: #87ceeb; opacity: 0.7; stroke: #000000; stroke-linejoin: miter"/>
   </g>
   <g id="patch_22">
    <path d="M 108.077308 242.2 
L 110.533851 242.2 
L 110.533851 57.089948 
L 108.077308 57.089948 
z
" clip-path="url(#p90bfe55952)" style="fill: #87ceeb; opacity: 0.7; stroke: #000000; stroke-linejoin: miter"/>
   </g>
   <g id="patch_23">
    <path d="M 110.533851 242.2 
L 112.990394 242.2 
L 112.990394 71.131599 
L 110.533851 71.131599 
z
" clip-path="url(#p90bfe55952)" style="fill: #87ceeb; opacity: 0.7; stroke: #000000; stroke-linejoin: miter"/>
   </g>
   <g id="patch_24">
    <path d="M 112.990394 242.2 
L 115.446936 242.2 
L 115.446936 68.220525 
L 112.990394 68.220525 
z
" clip-path="url(#p90bfe55952)" style="fill: #87ceeb; opacity: 0.7; stroke: #000000; stroke-linejoin: miter"/>
   </g>
   <g id="patch_25">
    <path d="M 115.446936 242.2 
L 117.903479 242.2 
L 117.903479 52.295238 
L 115.446936 52.295238 
z
" clip-path="url(#p90bfe55952)" style="fill: #87ceeb; opacity: 0.7; stroke: #000000; stroke-linejoin: miter"/>
   </g>
   <g id="patch_26">
    <path d="M 117.903479 242.2 
L 120.360022 242.2 
L 120.360022 71.131599 
L 117.903479 71.131599 
z
" clip-path="url(#p90bfe55952)" style="fill: #87ceeb; opacity: 0.7; stroke: #000000; stroke-linejoin: miter"/>
   </g>
   <g id="patch_27">
    <path d="M 120.360022 242.2 
L 122.816565 242.2 
L 122.816565 71.816557 
L 120.360022 71.816557 
z
" clip-path="url(#p90bfe55952)" style="fill: #87ceeb; opacity: 0.7; stroke: #000000; stroke-linejoin: miter"/>
   </g>
   <g id="patch_28">
    <path d="M 122.816565 242.2 
L 125.273108 242.2 
L 125.273108 80.721019 
L 122.816565 80.721019 
z
" clip-path="url(#p90bfe55952)" style="fill: #87ceeb; opacity: 0.7; stroke: #000000; stroke-linejoin: miter"/>
   </g>
   <g id="patch_29">
    <path d="M 125.273108 242.2 
L 127.729651 242.2 
L 127.729651 82.947134 
L 125.273108 82.947134 
z
" clip-path="url(#p90bfe55952)" style="fill: #87ceeb; opacity: 0.7; stroke: #000000; stroke-linejoin: miter"/>
   </g>
   <g id="patch_30">
    <path d="M 127.729651 242.2 
L 130.186194 242.2 
L 130.186194 83.460853 
L 127.729651 83.460853 
z
" clip-path="url(#p90bfe55952)" style="fill: #87ceeb; opacity: 0.7; stroke: #000000; stroke-linejoin: miter"/>
   </g>
   <g id="patch_31">
    <path d="M 130.186194 242.2 
L 132.642737 242.2 
L 132.642737 89.62548 
L 130.186194 89.62548 
z
" clip-path="url(#p90bfe55952)" style="fill: #87ceeb; opacity: 0.7; stroke: #000000; stroke-linejoin: miter"/>
   </g>
   <g id="patch_32">
    <path d="M 132.642737 242.2 
L 135.09928 242.2 
L 135.09928 100.927296 
L 132.642737 100.927296 
z
" clip-path="url(#p90bfe55952)" style="fill: #87ceeb; opacity: 0.7; stroke: #000000; stroke-linejoin: miter"/>
   </g>
   <g id="patch_33">
    <path d="M 135.09928 242.2 
L 137.555822 242.2 
L 137.555822 101.783494 
L 135.09928 101.783494 
z
" clip-path="url(#p90bfe55952)" style="fill: #87ceeb; opacity: 0.7; stroke: #000000; stroke-linejoin: miter"/>
   </g>
   <g id="patch_34">
    <path d="M 137.555822 242.2 
L 140.012365 242.2 
L 140.012365 106.578204 
L 137.555822 106.578204 
z
" clip-path="url(#p90bfe55952)" style="fill: #87ceeb; opacity: 0.7; stroke: #000000; stroke-linejoin: miter"/>
   </g>
   <g id="patch_35">
    <path d="M 140.012365 242.2 
L 142.468908 242.2 
L 142.468908 108.290601 
L 140.012365 108.290601 
z
" clip-path="url(#p90bfe55952)" style="fill: #87ceeb; opacity: 0.7; stroke: #000000; stroke-linejoin: miter"/>
   </g>
   <g id="patch_36">
    <path d="M 142.468908 242.2 
L 144.925451 242.2 
L 144.925451 120.791095 
L 142.468908 120.791095 
z
" clip-path="url(#p90bfe55952)" style="fill: #87ceeb; opacity: 0.7; stroke: #000000; stroke-linejoin: miter"/>
   </g>
   <g id="patch_37">
    <path d="M 144.925451 242.2 
L 147.381994 242.2 
L 147.381994 121.476053 
L 144.925451 121.476053 
z
" clip-path="url(#p90bfe55952)" style="fill: #87ceeb; opacity: 0.7; stroke: #000000; stroke-linejoin: miter"/>
   </g>
   <g id="patch_38">
    <path d="M 147.381994 242.2 
L 149.838537 242.2 
L 149.838537 134.832745 
L 147.381994 134.832745 
z
" clip-path="url(#p90bfe55952)" style="fill: #87ceeb; opacity: 0.7; stroke: #000000; stroke-linejoin: miter"/>
   </g>
   <g id="patch_39">
    <path d="M 149.838537 242.2 
L 152.29508 242.2 
L 152.29508 135.003985 
L 149.838537 135.003985 
z
" clip-path="url(#p90bfe55952)" style="fill: #87ceeb; opacity: 0.7; stroke: #000000; stroke-linejoin: miter"/>
   </g>
   <g id="patch_40">
    <path d="M 152.29508 242.2 
L 154.751623 242.2 
L 154.751623 141.682331 
L 152.29508 141.682331 
z
" clip-path="url(#p90bfe55952)" style="fill: #87ceeb; opacity: 0.7; stroke: #000000; stroke-linejoin: miter"/>
   </g>
   <g id="patch_41">
    <path d="M 154.751623 242.2 
L 157.208165 242.2 
L 157.208165 149.730594 
L 154.751623 149.730594 
z
" clip-path="url(#p90bfe55952)" style="fill: #87ceeb; opacity: 0.7; stroke: #000000; stroke-linejoin: miter"/>
   </g>
   <g id="patch_42">
    <path d="M 157.208165 242.2 
L 159.664708 242.2 
L 159.664708 157.436378 
L 157.208165 157.436378 
z
" clip-path="url(#p90bfe55952)" style="fill: #87ceeb; opacity: 0.7; stroke: #000000; stroke-linejoin: miter"/>
   </g>
   <g id="patch_43">
    <path d="M 159.664708 242.2 
L 162.121251 242.2 
L 162.121251 155.552742 
L 159.664708 155.552742 
z
" clip-path="url(#p90bfe55952)" style="fill: #87ceeb; opacity: 0.7; stroke: #000000; stroke-linejoin: miter"/>
   </g>
   <g id="patch_44">
    <path d="M 162.121251 242.2 
L 164.577794 242.2 
L 164.577794 162.573567 
L 162.121251 162.573567 
z
" clip-path="url(#p90bfe55952)" style="fill: #87ceeb; opacity: 0.7; stroke: #000000; stroke-linejoin: miter"/>
   </g>
   <g id="patch_45">
    <path d="M 164.577794 242.2 
L 167.034337 242.2 
L 167.034337 162.402327 
L 164.577794 162.402327 
z
" clip-path="url(#p90bfe55952)" style="fill: #87ceeb; opacity: 0.7; stroke: #000000; stroke-linejoin: miter"/>
   </g>
   <g id="patch_46">
    <path d="M 167.034337 242.2 
L 169.49088 242.2 
L 169.49088 161.888608 
L 167.034337 161.888608 
z
" clip-path="url(#p90bfe55952)" style="fill: #87ceeb; opacity: 0.7; stroke: #000000; stroke-linejoin: miter"/>
   </g>
   <g id="patch_47">
    <path d="M 169.49088 242.2 
L 171.947423 242.2 
L 171.947423 173.190425 
L 169.49088 173.190425 
z
" clip-path="url(#p90bfe55952)" style="fill: #87ceeb; opacity: 0.7; stroke: #000000; stroke-linejoin: miter"/>
   </g>
   <g id="patch_48">
    <path d="M 171.947423 242.2 
L 174.403966 242.2 
L 174.403966 178.498854 
L 171.947423 178.498854 
z
" clip-path="url(#p90bfe55952)" style="fill: #87ceeb; opacity: 0.7; stroke: #000000; stroke-linejoin: miter"/>
   </g>
   <g id="patch_49">
    <path d="M 174.403966 242.2 
L 176.860509 242.2 
L 176.860509 185.00596 
L 174.403966 185.00596 
z
" clip-path="url(#p90bfe55952)" style="fill: #87ceeb; opacity: 0.7; stroke: #000000; stroke-linejoin: miter"/>
   </g>
   <g id="patch_50">
    <path d="M 176.860509 242.2 
L 179.317051 242.2 
L 179.317051 184.321001 
L 176.860509 184.321001 
z
" clip-path="url(#p90bfe55952)" style="fill: #87ceeb; opacity: 0.7; stroke: #000000; stroke-linejoin: miter"/>
   </g>
   <g id="patch_51">
    <path d="M 179.317051 242.2 
L 181.773594 242.2 
L 181.773594 190.143149 
L 179.317051 190.143149 
z
" clip-path="url(#p90bfe55952)" style="fill: #87ceeb; opacity: 0.7; stroke: #000000; stroke-linejoin: miter"/>
   </g>
   <g id="patch_52">
    <path d="M 181.773594 242.2 
L 184.230137 242.2 
L 184.230137 187.574555 
L 181.773594 187.574555 
z
" clip-path="url(#p90bfe55952)" style="fill: #87ceeb; opacity: 0.7; stroke: #000000; stroke-linejoin: miter"/>
   </g>
   <g id="patch_53">
    <path d="M 184.230137 242.2 
L 186.68668 242.2 
L 186.68668 195.794057 
L 184.230137 195.794057 
z
" clip-path="url(#p90bfe55952)" style="fill: #87ceeb; opacity: 0.7; stroke: #000000; stroke-linejoin: miter"/>
   </g>
   <g id="patch_54">
    <path d="M 186.68668 242.2 
L 189.143223 242.2 
L 189.143223 192.882983 
L 186.68668 192.882983 
z
" clip-path="url(#p90bfe55952)" style="fill: #87ceeb; opacity: 0.7; stroke: #000000; stroke-linejoin: miter"/>
   </g>
   <g id="patch_55">
    <path d="M 189.143223 242.2 
L 191.599766 242.2 
L 191.599766 201.616205 
L 189.143223 201.616205 
z
" clip-path="url(#p90bfe55952)" style="fill: #87ceeb; opacity: 0.7; stroke: #000000; stroke-linejoin: miter"/>
   </g>
   <g id="patch_56">
    <path d="M 191.599766 242.2 
L 194.056309 242.2 
L 194.056309 200.417528 
L 191.599766 200.417528 
z
" clip-path="url(#p90bfe55952)" style="fill: #87ceeb; opacity: 0.7; stroke: #000000; stroke-linejoin: miter"/>
   </g>
   <g id="patch_57">
    <path d="M 194.056309 242.2 
L 196.512852 242.2 
L 196.512852 207.952072 
L 194.056309 207.952072 
z
" clip-path="url(#p90bfe55952)" style="fill: #87ceeb; opacity: 0.7; stroke: #000000; stroke-linejoin: miter"/>
   </g>
   <g id="patch_58">
    <path d="M 196.512852 242.2 
L 198.969394 242.2 
L 198.969394 206.239675 
L 196.512852 206.239675 
z
" clip-path="url(#p90bfe55952)" style="fill: #87ceeb; opacity: 0.7; stroke: #000000; stroke-linejoin: miter"/>
   </g>
   <g id="patch_59">
    <path d="M 198.969394 242.2 
L 201.425937 242.2 
L 201.425937 211.719344 
L 198.969394 211.719344 
z
" clip-path="url(#p90bfe55952)" style="fill: #87ceeb; opacity: 0.7; stroke: #000000; stroke-linejoin: miter"/>
   </g>
   <g id="patch_60">
    <path d="M 201.425937 242.2 
L 203.88248 242.2 
L 203.88248 214.287939 
L 201.425937 214.287939 
z
" clip-path="url(#p90bfe55952)" style="fill: #87ceeb; opacity: 0.7; stroke: #000000; stroke-linejoin: miter"/>
   </g>
   <g id="patch_61">
    <path d="M 203.88248 242.2 
L 206.339023 242.2 
L 206.339023 214.801657 
L 203.88248 214.801657 
z
" clip-path="url(#p90bfe55952)" style="fill: #87ceeb; opacity: 0.7; stroke: #000000; stroke-linejoin: miter"/>
   </g>
   <g id="patch_62">
    <path d="M 206.339023 242.2 
L 208.795566 242.2 
L 208.795566 217.541492 
L 206.339023 217.541492 
z
" clip-path="url(#p90bfe55952)" style="fill: #87ceeb; opacity: 0.7; stroke: #000000; stroke-linejoin: miter"/>
   </g>
   <g id="patch_63">
    <path d="M 208.795566 242.2 
L 211.252109 242.2 
L 211.252109 218.740169 
L 208.795566 218.740169 
z
" clip-path="url(#p90bfe55952)" style="fill: #87ceeb; opacity: 0.7; stroke: #000000; stroke-linejoin: miter"/>
   </g>
   <g id="patch_64">
    <path d="M 211.252109 242.2 
L 213.708652 242.2 
L 213.708652 220.795045 
L 211.252109 220.795045 
z
" clip-path="url(#p90bfe55952)" style="fill: #87ceeb; opacity: 0.7; stroke: #000000; stroke-linejoin: miter"/>
   </g>
   <g id="patch_65">
    <path d="M 213.708652 242.2 
L 216.165195 242.2 
L 216.165195 219.938847 
L 213.708652 219.938847 
z
" clip-path="url(#p90bfe55952)" style="fill: #87ceeb; opacity: 0.7; stroke: #000000; stroke-linejoin: miter"/>
   </g>
   <g id="patch_66">
    <path d="M 216.165195 242.2 
L 218.621738 242.2 
L 218.621738 223.363639 
L 216.165195 223.363639 
z
" clip-path="url(#p90bfe55952)" style="fill: #87ceeb; opacity: 0.7; stroke: #000000; stroke-linejoin: miter"/>
   </g>
   <g id="patch_67">
    <path d="M 218.621738 242.2 
L 221.07828 242.2 
L 221.07828 224.391077 
L 218.621738 224.391077 
z
" clip-path="url(#p90bfe55952)" style="fill: #87ceeb; opacity: 0.7; stroke: #000000; stroke-linejoin: miter"/>
   </g>
   <g id="patch_68">
    <path d="M 221.07828 242.2 
L 223.534823 242.2 
L 223.534823 226.959672 
L 221.07828 226.959672 
z
" clip-path="url(#p90bfe55952)" style="fill: #87ceeb; opacity: 0.7; stroke: #000000; stroke-linejoin: miter"/>
   </g>
   <g id="patch_69">
    <path d="M 223.534823 242.2 
L 225.991366 242.2 
L 225.991366 226.445953 
L 223.534823 226.445953 
z
" clip-path="url(#p90bfe55952)" style="fill: #87ceeb; opacity: 0.7; stroke: #000000; stroke-linejoin: miter"/>
   </g>
   <g id="patch_70">
    <path d="M 225.991366 242.2 
L 228.447909 242.2 
L 228.447909 227.130912 
L 225.991366 227.130912 
z
" clip-path="url(#p90bfe55952)" style="fill: #87ceeb; opacity: 0.7; stroke: #000000; stroke-linejoin: miter"/>
   </g>
   <g id="patch_71">
    <path d="M 228.447909 242.2 
L 230.904452 242.2 
L 230.904452 228.843308 
L 228.447909 228.843308 
z
" clip-path="url(#p90bfe55952)" style="fill: #87ceeb; opacity: 0.7; stroke: #000000; stroke-linejoin: miter"/>
   </g>
   <g id="patch_72">
    <path d="M 230.904452 242.2 
L 233.360995 242.2 
L 233.360995 231.069423 
L 230.904452 231.069423 
z
" clip-path="url(#p90bfe55952)" style="fill: #87ceeb; opacity: 0.7; stroke: #000000; stroke-linejoin: miter"/>
   </g>
   <g id="patch_73">
    <path d="M 233.360995 242.2 
L 235.817538 242.2 
L 235.817538 233.124299 
L 233.360995 233.124299 
z
" clip-path="url(#p90bfe55952)" style="fill: #87ceeb; opacity: 0.7; stroke: #000000; stroke-linejoin: miter"/>
   </g>
   <g id="patch_74">
    <path d="M 235.817538 242.2 
L 238.274081 242.2 
L 238.274081 230.898184 
L 235.817538 230.898184 
z
" clip-path="url(#p90bfe55952)" style="fill: #87ceeb; opacity: 0.7; stroke: #000000; stroke-linejoin: miter"/>
   </g>
   <g id="patch_75">
    <path d="M 238.274081 242.2 
L 240.730623 242.2 
L 240.730623 232.61058 
L 238.274081 232.61058 
z
" clip-path="url(#p90bfe55952)" style="fill: #87ceeb; opacity: 0.7; stroke: #000000; stroke-linejoin: miter"/>
   </g>
   <g id="patch_76">
    <path d="M 240.730623 242.2 
L 243.187166 242.2 
L 243.187166 234.322977 
L 240.730623 234.322977 
z
" clip-path="url(#p90bfe55952)" style="fill: #87ceeb; opacity: 0.7; stroke: #000000; stroke-linejoin: miter"/>
   </g>
   <g id="patch_77">
    <path d="M 243.187166 242.2 
L 245.643709 242.2 
L 245.643709 232.953059 
L 243.187166 232.953059 
z
" clip-path="url(#p90bfe55952)" style="fill: #87ceeb; opacity: 0.7; stroke: #000000; stroke-linejoin: miter"/>
   </g>
   <g id="patch_78">
    <path d="M 245.643709 242.2 
L 248.100252 242.2 
L 248.100252 235.692894 
L 245.643709 235.692894 
z
" clip-path="url(#p90bfe55952)" style="fill: #87ceeb; opacity: 0.7; stroke: #000000; stroke-linejoin: miter"/>
   </g>
   <g id="patch_79">
    <path d="M 248.100252 242.2 
L 250.556795 242.2 
L 250.556795 234.665456 
L 248.100252 234.665456 
z
" clip-path="url(#p90bfe55952)" style="fill: #87ceeb; opacity: 0.7; stroke: #000000; stroke-linejoin: miter"/>
   </g>
   <g id="patch_80">
    <path d="M 250.556795 242.2 
L 253.013338 242.2 
L 253.013338 234.836695 
L 250.556795 234.836695 
z
" clip-path="url(#p90bfe55952)" style="fill: #87ceeb; opacity: 0.7; stroke: #000000; stroke-linejoin: miter"/>
   </g>
   <g id="patch_81">
    <path d="M 253.013338 242.2 
L 255.469881 242.2 
L 255.469881 235.864133 
L 253.013338 235.864133 
z
" clip-path="url(#p90bfe55952)" style="fill: #87ceeb; opacity: 0.7; stroke: #000000; stroke-linejoin: miter"/>
   </g>
   <g id="patch_82">
    <path d="M 255.469881 242.2 
L 257.926424 242.2 
L 257.926424 237.062811 
L 255.469881 237.062811 
z
" clip-path="url(#p90bfe55952)" style="fill: #87ceeb; opacity: 0.7; stroke: #000000; stroke-linejoin: miter"/>
   </g>
   <g id="patch_83">
    <path d="M 257.926424 242.2 
L 260.382966 242.2 
L 260.382966 234.151737 
L 257.926424 234.151737 
z
" clip-path="url(#p90bfe55952)" style="fill: #87ceeb; opacity: 0.7; stroke: #000000; stroke-linejoin: miter"/>
   </g>
   <g id="patch_84">
    <path d="M 260.382966 242.2 
L 262.839509 242.2 
L 262.839509 237.747769 
L 260.382966 237.747769 
z
" clip-path="url(#p90bfe55952)" style="fill: #87ceeb; opacity: 0.7; stroke: #000000; stroke-linejoin: miter"/>
   </g>
   <g id="patch_85">
    <path d="M 262.839509 242.2 
L 265.296052 242.2 
L 265.296052 236.206613 
L 262.839509 236.206613 
z
" clip-path="url(#p90bfe55952)" style="fill: #87ceeb; opacity: 0.7; stroke: #000000; stroke-linejoin: miter"/>
   </g>
   <g id="patch_86">
    <path d="M 265.296052 242.2 
L 267.752595 242.2 
L 267.752595 236.549092 
L 265.296052 236.549092 
z
" clip-path="url(#p90bfe55952)" style="fill: #87ceeb; opacity: 0.7; stroke: #000000; stroke-linejoin: miter"/>
   </g>
   <g id="patch_87">
    <path d="M 267.752595 242.2 
L 270.209138 242.2 
L 270.209138 237.919009 
L 267.752595 237.919009 
z
" clip-path="url(#p90bfe55952)" style="fill: #87ceeb; opacity: 0.7; stroke: #000000; stroke-linejoin: miter"/>
   </g>
   <g id="patch_88">
    <path d="M 270.209138 242.2 
L 272.665681 242.2 
L 272.665681 236.720331 
L 270.209138 236.720331 
z
" clip-path="url(#p90bfe55952)" style="fill: #87ceeb; opacity: 0.7; stroke: #000000; stroke-linejoin: miter"/>
   </g>
   <g id="patch_89">
    <path d="M 272.665681 242.2 
L 275.122224 242.2 
L 275.122224 238.946447 
L 272.665681 238.946447 
z
" clip-path="url(#p90bfe55952)" style="fill: #87ceeb; opacity: 0.7; stroke: #000000; stroke-linejoin: miter"/>
   </g>
   <g id="patch_90">
    <path d="M 275.122224 242.2 
L 277.578767 242.2 
L 277.578767 239.631405 
L 275.122224 239.631405 
z
" clip-path="url(#p90bfe55952)" style="fill: #87ceeb; opacity: 0.7; stroke: #000000; stroke-linejoin: miter"/>
   </g>
   <g id="patch_91">
    <path d="M 277.578767 242.2 
L 280.03531 242.2 
L 280.03531 239.460166 
L 277.578767 239.460166 
z
" clip-path="url(#p90bfe55952)" style="fill: #87ceeb; opacity: 0.7; stroke: #000000; stroke-linejoin: miter"/>
   </g>
   <g id="patch_92">
    <path d="M 280.03531 242.2 
L 282.491852 242.2 
L 282.491852 239.117686 
L 280.03531 239.117686 
z
" clip-path="url(#p90bfe55952)" style="fill: #87ceeb; opacity: 0.7; stroke: #000000; stroke-linejoin: miter"/>
   </g>
   <g id="patch_93">
    <path d="M 282.491852 242.2 
L 284.948395 242.2 
L 284.948395 237.747769 
L 282.491852 237.747769 
z
" clip-path="url(#p90bfe55952)" style="fill: #87ceeb; opacity: 0.7; stroke: #000000; stroke-linejoin: miter"/>
   </g>
   <g id="patch_94">
    <path d="M 284.948395 242.2 
L 287.404938 242.2 
L 287.404938 240.316364 
L 284.948395 240.316364 
z
" clip-path="url(#p90bfe55952)" style="fill: #87ceeb; opacity: 0.7; stroke: #000000; stroke-linejoin: miter"/>
   </g>
   <g id="patch_95">
    <path d="M 287.404938 242.2 
L 289.861481 242.2 
L 289.861481 240.316364 
L 287.404938 240.316364 
z
" clip-path="url(#p90bfe55952)" style="fill: #87ceeb; opacity: 0.7; stroke: #000000; stroke-linejoin: miter"/>
   </g>
   <g id="patch_96">
    <path d="M 289.861481 242.2 
L 292.318024 242.2 
L 292.318024 239.802645 
L 289.861481 239.802645 
z
" clip-path="url(#p90bfe55952)" style="fill: #87ceeb; opacity: 0.7; stroke: #000000; stroke-linejoin: miter"/>
   </g>
   <g id="patch_97">
    <path d="M 292.318024 242.2 
L 294.774567 242.2 
L 294.774567 240.145124 
L 292.318024 240.145124 
z
" clip-path="url(#p90bfe55952)" style="fill: #87ceeb; opacity: 0.7; stroke: #000000; stroke-linejoin: miter"/>
   </g>
   <g id="patch_98">
    <path d="M 294.774567 242.2 
L 297.23111 242.2 
L 297.23111 240.145124 
L 294.774567 240.145124 
z
" clip-path="url(#p90bfe55952)" style="fill: #87ceeb; opacity: 0.7; stroke: #000000; stroke-linejoin: miter"/>
   </g>
   <g id="patch_99">
    <path d="M 297.23111 242.2 
L 299.687653 242.2 
L 299.687653 241.172562 
L 297.23111 241.172562 
z
" clip-path="url(#p90bfe55952)" style="fill: #87ceeb; opacity: 0.7; stroke: #000000; stroke-linejoin: miter"/>
   </g>
   <g id="patch_100">
    <path d="M 299.687653 242.2 
L 302.144195 242.2 
L 302.144195 239.288926 
L 299.687653 239.288926 
z
" clip-path="url(#p90bfe55952)" style="fill: #87ceeb; opacity: 0.7; stroke: #000000; stroke-linejoin: miter"/>
   </g>
   <g id="patch_101">
    <path d="M 302.144195 242.2 
L 304.600738 242.2 
L 304.600738 240.658843 
L 302.144195 240.658843 
z
" clip-path="url(#p90bfe55952)" style="fill: #87ceeb; opacity: 0.7; stroke: #000000; stroke-linejoin: miter"/>
   </g>
   <g id="patch_102">
    <path d="M 304.600738 242.2 
L 307.057281 242.2 
L 307.057281 241.172562 
L 304.600738 241.172562 
z
" clip-path="url(#p90bfe55952)" style="fill: #87ceeb; opacity: 0.7; stroke: #000000; stroke-linejoin: miter"/>
   </g>
   <g id="patch_103">
    <path d="M 307.057281 242.2 
L 309.513824 242.2 
L 309.513824 240.487604 
L 307.057281 240.487604 
z
" clip-path="url(#p90bfe55952)" style="fill: #87ceeb; opacity: 0.7; stroke: #000000; stroke-linejoin: miter"/>
   </g>
   <g id="patch_104">
    <path d="M 309.513824 242.2 
L 311.970367 242.2 
L 311.970367 241.857521 
L 309.513824 241.857521 
z
" clip-path="url(#p90bfe55952)" style="fill: #87ceeb; opacity: 0.7; stroke: #000000; stroke-linejoin: miter"/>
   </g>
   <g id="patch_105">
    <path d="M 311.970367 242.2 
L 314.42691 242.2 
L 314.42691 241.172562 
L 311.970367 241.172562 
z
" clip-path="url(#p90bfe55952)" style="fill: #87ceeb; opacity: 0.7; stroke: #000000; stroke-linejoin: miter"/>
   </g>
   <g id="patch_106">
    <path d="M 314.42691 242.2 
L 316.883453 242.2 
L 316.883453 241.172562 
L 314.42691 241.172562 
z
" clip-path="url(#p90bfe55952)" style="fill: #87ceeb; opacity: 0.7; stroke: #000000; stroke-linejoin: miter"/>
   </g>
   <g id="patch_107">
    <path d="M 316.883453 242.2 
L 319.339996 242.2 
L 319.339996 241.001323 
L 316.883453 241.001323 
z
" clip-path="url(#p90bfe55952)" style="fill: #87ceeb; opacity: 0.7; stroke: #000000; stroke-linejoin: miter"/>
   </g>
   <g id="patch_108">
    <path d="M 319.339996 242.2 
L 321.796539 242.2 
L 321.796539 241.515041 
L 319.339996 241.515041 
z
" clip-path="url(#p90bfe55952)" style="fill: #87ceeb; opacity: 0.7; stroke: #000000; stroke-linejoin: miter"/>
   </g>
   <g id="patch_109">
    <path d="M 321.796539 242.2 
L 324.253081 242.2 
L 324.253081 241.172562 
L 321.796539 241.172562 
z
" clip-path="url(#p90bfe55952)" style="fill: #87ceeb; opacity: 0.7; stroke: #000000; stroke-linejoin: miter"/>
   </g>
   <g id="patch_110">
    <path d="M 324.253081 242.2 
L 326.709624 242.2 
L 326.709624 241.172562 
L 324.253081 241.172562 
z
" clip-path="url(#p90bfe55952)" style="fill: #87ceeb; opacity: 0.7; stroke: #000000; stroke-linejoin: miter"/>
   </g>
   <g id="patch_111">
    <path d="M 326.709624 242.2 
L 329.166167 242.2 
L 329.166167 241.172562 
L 326.709624 241.172562 
z
" clip-path="url(#p90bfe55952)" style="fill: #87ceeb; opacity: 0.7; stroke: #000000; stroke-linejoin: miter"/>
   </g>
   <g id="patch_112">
    <path d="M 329.166167 242.2 
L 331.62271 242.2 
L 331.62271 242.02876 
L 329.166167 242.02876 
z
" clip-path="url(#p90bfe55952)" style="fill: #87ceeb; opacity: 0.7; stroke: #000000; stroke-linejoin: miter"/>
   </g>
   <g id="patch_113">
    <path d="M 331.62271 242.2 
L 334.079253 242.2 
L 334.079253 242.2 
L 331.62271 242.2 
z
" clip-path="url(#p90bfe55952)" style="fill: #87ceeb; opacity: 0.7; stroke: #000000; stroke-linejoin: miter"/>
   </g>
   <g id="patch_114">
    <path d="M 334.079253 242.2 
L 336.535796 242.2 
L 336.535796 241.857521 
L 334.079253 241.857521 
z
" clip-path="url(#p90bfe55952)" style="fill: #87ceeb; opacity: 0.7; stroke: #000000; stroke-linejoin: miter"/>
   </g>
   <g id="patch_115">
    <path d="M 336.535796 242.2 
L 338.992339 242.2 
L 338.992339 242.02876 
L 336.535796 242.02876 
z
" clip-path="url(#p90bfe55952)" style="fill: #87ceeb; opacity: 0.7; stroke: #000000; stroke-linejoin: miter"/>
   </g>
   <g id="patch_116">
    <path d="M 338.992339 242.2 
L 341.448882 242.2 
L 341.448882 241.857521 
L 338.992339 241.857521 
z
" clip-path="url(#p90bfe55952)" style="fill: #87ceeb; opacity: 0.7; stroke: #000000; stroke-linejoin: miter"/>
   </g>
   <g id="patch_117">
    <path d="M 341.448882 242.2 
L 343.905424 242.2 
L 343.905424 242.2 
L 341.448882 242.2 
z
" clip-path="url(#p90bfe55952)" style="fill: #87ceeb; opacity: 0.7; stroke: #000000; stroke-linejoin: miter"/>
   </g>
   <g id="patch_118">
    <path d="M 343.905424 242.2 
L 346.361967 242.2 
L 346.361967 242.2 
L 343.905424 242.2 
z
" clip-path="url(#p90bfe55952)" style="fill: #87ceeb; opacity: 0.7; stroke: #000000; stroke-linejoin: miter"/>
   </g>
   <g id="patch_119">
    <path d="M 346.361967 242.2 
L 348.81851 242.2 
L 348.81851 241.686281 
L 346.361967 241.686281 
z
" clip-path="url(#p90bfe55952)" style="fill: #87ceeb; opacity: 0.7; stroke: #000000; stroke-linejoin: miter"/>
   </g>
   <g id="patch_120">
    <path d="M 348.81851 242.2 
L 351.275053 242.2 
L 351.275053 241.857521 
L 348.81851 241.857521 
z
" clip-path="url(#p90bfe55952)" style="fill: #87ceeb; opacity: 0.7; stroke: #000000; stroke-linejoin: miter"/>
   </g>
   <g id="patch_121">
    <path d="M 351.275053 242.2 
L 353.731596 242.2 
L 353.731596 241.857521 
L 351.275053 241.857521 
z
" clip-path="url(#p90bfe55952)" style="fill: #87ceeb; opacity: 0.7; stroke: #000000; stroke-linejoin: miter"/>
   </g>
   <g id="patch_122">
    <path d="M 353.731596 242.2 
L 356.188139 242.2 
L 356.188139 242.2 
L 353.731596 242.2 
z
" clip-path="url(#p90bfe55952)" style="fill: #87ceeb; opacity: 0.7; stroke: #000000; stroke-linejoin: miter"/>
   </g>
   <g id="patch_123">
    <path d="M 356.188139 242.2 
L 358.644682 242.2 
L 358.644682 242.02876 
L 356.188139 242.02876 
z
" clip-path="url(#p90bfe55952)" style="fill: #87ceeb; opacity: 0.7; stroke: #000000; stroke-linejoin: miter"/>
   </g>
   <g id="patch_124">
    <path d="M 358.644682 242.2 
L 361.101225 242.2 
L 361.101225 241.857521 
L 358.644682 241.857521 
z
" clip-path="url(#p90bfe55952)" style="fill: #87ceeb; opacity: 0.7; stroke: #000000; stroke-linejoin: miter"/>
   </g>
   <g id="patch_125">
    <path d="M 361.101225 242.2 
L 363.557768 242.2 
L 363.557768 242.2 
L 361.101225 242.2 
z
" clip-path="url(#p90bfe55952)" style="fill: #87ceeb; opacity: 0.7; stroke: #000000; stroke-linejoin: miter"/>
   </g>
   <g id="patch_126">
    <path d="M 363.557768 242.2 
L 366.01431 242.2 
L 366.01431 242.2 
L 363.557768 242.2 
z
" clip-path="url(#p90bfe55952)" style="fill: #87ceeb; opacity: 0.7; stroke: #000000; stroke-linejoin: miter"/>
   </g>
   <g id="patch_127">
    <path d="M 366.01431 242.2 
L 368.470853 242.2 
L 368.470853 241.686281 
L 366.01431 241.686281 
z
" clip-path="url(#p90bfe55952)" style="fill: #87ceeb; opacity: 0.7; stroke: #000000; stroke-linejoin: miter"/>
   </g>
   <g id="patch_128">
    <path d="M 368.470853 242.2 
L 370.927396 242.2 
L 370.927396 242.02876 
L 368.470853 242.02876 
z
" clip-path="url(#p90bfe55952)" style="fill: #87ceeb; opacity: 0.7; stroke: #000000; stroke-linejoin: miter"/>
   </g>
   <g id="patch_129">
    <path d="M 370.927396 242.2 
L 373.383939 242.2 
L 373.383939 241.857521 
L 370.927396 241.857521 
z
" clip-path="url(#p90bfe55952)" style="fill: #87ceeb; opacity: 0.7; stroke: #000000; stroke-linejoin: miter"/>
   </g>
   <g id="patch_130">
    <path d="M 373.383939 242.2 
L 375.840482 242.2 
L 375.840482 242.2 
L 373.383939 242.2 
z
" clip-path="url(#p90bfe55952)" style="fill: #87ceeb; opacity: 0.7; stroke: #000000; stroke-linejoin: miter"/>
   </g>
   <g id="patch_131">
    <path d="M 375.840482 242.2 
L 378.297025 242.2 
L 378.297025 242.02876 
L 375.840482 242.02876 
z
" clip-path="url(#p90bfe55952)" style="fill: #87ceeb; opacity: 0.7; stroke: #000000; stroke-linejoin: miter"/>
   </g>
   <g id="patch_132">
    <path d="M 378.297025 242.2 
L 380.753568 242.2 
L 380.753568 242.02876 
L 378.297025 242.02876 
z
" clip-path="url(#p90bfe55952)" style="fill: #87ceeb; opacity: 0.7; stroke: #000000; stroke-linejoin: miter"/>
   </g>
   <g id="patch_133">
    <path d="M 380.753568 242.2 
L 383.210111 242.2 
L 383.210111 241.857521 
L 380.753568 241.857521 
z
" clip-path="url(#p90bfe55952)" style="fill: #87ceeb; opacity: 0.7; stroke: #000000; stroke-linejoin: miter"/>
   </g>
   <g id="patch_134">
    <path d="M 383.210111 242.2 
L 385.666653 242.2 
L 385.666653 242.02876 
L 383.210111 242.02876 
z
" clip-path="url(#p90bfe55952)" style="fill: #87ceeb; opacity: 0.7; stroke: #000000; stroke-linejoin: miter"/>
   </g>
   <g id="patch_135">
    <path d="M 385.666653 242.2 
L 388.123196 242.2 
L 388.123196 242.2 
L 385.666653 242.2 
z
" clip-path="url(#p90bfe55952)" style="fill: #87ceeb; opacity: 0.7; stroke: #000000; stroke-linejoin: miter"/>
   </g>
   <g id="patch_136">
    <path d="M 388.123196 242.2 
L 390.579739 242.2 
L 390.579739 242.02876 
L 388.123196 242.02876 
z
" clip-path="url(#p90bfe55952)" style="fill: #87ceeb; opacity: 0.7; stroke: #000000; stroke-linejoin: miter"/>
   </g>
   <g id="patch_137">
    <path d="M 390.579739 242.2 
L 393.036282 242.2 
L 393.036282 242.02876 
L 390.579739 242.02876 
z
" clip-path="url(#p90bfe55952)" style="fill: #87ceeb; opacity: 0.7; stroke: #000000; stroke-linejoin: miter"/>
   </g>
   <g id="patch_138">
    <path d="M 393.036282 242.2 
L 395.492825 242.2 
L 395.492825 242.2 
L 393.036282 242.2 
z
" clip-path="url(#p90bfe55952)" style="fill: #87ceeb; opacity: 0.7; stroke: #000000; stroke-linejoin: miter"/>
   </g>
   <g id="patch_139">
    <path d="M 395.492825 242.2 
L 397.949368 242.2 
L 397.949368 241.857521 
L 395.492825 241.857521 
z
" clip-path="url(#p90bfe55952)" style="fill: #87ceeb; opacity: 0.7; stroke: #000000; stroke-linejoin: miter"/>
   </g>
   <g id="patch_140">
    <path d="M 397.949368 242.2 
L 400.405911 242.2 
L 400.405911 242.02876 
L 397.949368 242.02876 
z
" clip-path="url(#p90bfe55952)" style="fill: #87ceeb; opacity: 0.7; stroke: #000000; stroke-linejoin: miter"/>
   </g>
   <g id="patch_141">
    <path d="M 400.405911 242.2 
L 402.862454 242.2 
L 402.862454 242.2 
L 400.405911 242.2 
z
" clip-path="url(#p90bfe55952)" style="fill: #87ceeb; opacity: 0.7; stroke: #000000; stroke-linejoin: miter"/>
   </g>
   <g id="patch_142">
    <path d="M 402.862454 242.2 
L 405.318997 242.2 
L 405.318997 242.02876 
L 402.862454 242.02876 
z
" clip-path="url(#p90bfe55952)" style="fill: #87ceeb; opacity: 0.7; stroke: #000000; stroke-linejoin: miter"/>
   </g>
   <g id="patch_143">
    <path d="M 405.318997 242.2 
L 407.775539 242.2 
L 407.775539 242.02876 
L 405.318997 242.02876 
z
" clip-path="url(#p90bfe55952)" style="fill: #87ceeb; opacity: 0.7; stroke: #000000; stroke-linejoin: miter"/>
   </g>
   <g id="patch_144">
    <path d="M 407.775539 242.2 
L 410.232082 242.2 
L 410.232082 242.02876 
L 407.775539 242.02876 
z
" clip-path="url(#p90bfe55952)" style="fill: #87ceeb; opacity: 0.7; stroke: #000000; stroke-linejoin: miter"/>
   </g>
   <g id="patch_145">
    <path d="M 410.232082 242.2 
L 412.688625 242.2 
L 412.688625 242.02876 
L 410.232082 242.02876 
z
" clip-path="url(#p90bfe55952)" style="fill: #87ceeb; opacity: 0.7; stroke: #000000; stroke-linejoin: miter"/>
   </g>
   <g id="patch_146">
    <path d="M 412.688625 242.2 
L 415.145168 242.2 
L 415.145168 242.2 
L 412.688625 242.2 
z
" clip-path="url(#p90bfe55952)" style="fill: #87ceeb; opacity: 0.7; stroke: #000000; stroke-linejoin: miter"/>
   </g>
   <g id="patch_147">
    <path d="M 415.145168 242.2 
L 417.601711 242.2 
L 417.601711 242.2 
L 415.145168 242.2 
z
" clip-path="url(#p90bfe55952)" style="fill: #87ceeb; opacity: 0.7; stroke: #000000; stroke-linejoin: miter"/>
   </g>
   <g id="patch_148">
    <path d="M 417.601711 242.2 
L 420.058254 242.2 
L 420.058254 242.2 
L 417.601711 242.2 
z
" clip-path="url(#p90bfe55952)" style="fill: #87ceeb; opacity: 0.7; stroke: #000000; stroke-linejoin: miter"/>
   </g>
   <g id="patch_149">
    <path d="M 420.058254 242.2 
L 422.514797 242.2 
L 422.514797 242.02876 
L 420.058254 242.02876 
z
" clip-path="url(#p90bfe55952)" style="fill: #87ceeb; opacity: 0.7; stroke: #000000; stroke-linejoin: miter"/>
   </g>
   <g id="patch_150">
    <path d="M 422.514797 242.2 
L 424.97134 242.2 
L 424.97134 242.2 
L 422.514797 242.2 
z
" clip-path="url(#p90bfe55952)" style="fill: #87ceeb; opacity: 0.7; stroke: #000000; stroke-linejoin: miter"/>
   </g>
   <g id="patch_151">
    <path d="M 424.97134 242.2 
L 427.427882 242.2 
L 427.427882 242.2 
L 424.97134 242.2 
z
" clip-path="url(#p90bfe55952)" style="fill: #87ceeb; opacity: 0.7; stroke: #000000; stroke-linejoin: miter"/>
   </g>
   <g id="patch_152">
    <path d="M 427.427882 242.2 
L 429.884425 242.2 
L 429.884425 242.02876 
L 427.427882 242.02876 
z
" clip-path="url(#p90bfe55952)" style="fill: #87ceeb; opacity: 0.7; stroke: #000000; stroke-linejoin: miter"/>
   </g>
   <g id="matplotlib.axis_1">
    <g id="xtick_1">
     <g id="line2d_1">
      <defs>
       <path id="m242486f127" d="M 0 0 
L 0 3.5 
" style="stroke: #000000; stroke-width: 0.8"/>
      </defs>
      <g>
       <use xlink:href="#m242486f127" x="60.925" y="242.2" style="stroke: #000000; stroke-width: 0.8"/>
      </g>
     </g>
     <g id="text_1">
      <!-- 0 -->
      <g transform="translate(57.74375 256.798437) scale(0.1 -0.1)">
       <defs>
        <path id="DejaVuSans-30" d="M 2034 4250 
Q 1547 4250 1301 3770 
Q 1056 3291 1056 2328 
Q 1056 1369 1301 889 
Q 1547 409 2034 409 
Q 2525 409 2770 889 
Q 3016 1369 3016 2328 
Q 3016 3291 2770 3770 
Q 2525 4250 2034 4250 
z
M 2034 4750 
Q 2819 4750 3233 4129 
Q 3647 3509 3647 2328 
Q 3647 1150 3233 529 
Q 2819 -91 2034 -91 
Q 1250 -91 836 529 
Q 422 1150 422 2328 
Q 422 3509 836 4129 
Q 1250 4750 2034 4750 
z
" transform="scale(0.015625)"/>
       </defs>
       <use xlink:href="#DejaVuSans-30"/>
      </g>
     </g>
    </g>
    <g id="xtick_2">
     <g id="line2d_2">
      <g>
       <use xlink:href="#m242486f127" x="142.866667" y="242.2" style="stroke: #000000; stroke-width: 0.8"/>
      </g>
     </g>
     <g id="text_2">
      <!-- 200 -->
      <g transform="translate(133.322917 256.798437) scale(0.1 -0.1)">
       <defs>
        <path id="DejaVuSans-32" d="M 1228 531 
L 3431 531 
L 3431 0 
L 469 0 
L 469 531 
Q 828 903 1448 1529 
Q 2069 2156 2228 2338 
Q 2531 2678 2651 2914 
Q 2772 3150 2772 3378 
Q 2772 3750 2511 3984 
Q 2250 4219 1831 4219 
Q 1534 4219 1204 4116 
Q 875 4013 500 3803 
L 500 4441 
Q 881 4594 1212 4672 
Q 1544 4750 1819 4750 
Q 2544 4750 2975 4387 
Q 3406 4025 3406 3419 
Q 3406 3131 3298 2873 
Q 3191 2616 2906 2266 
Q 2828 2175 2409 1742 
Q 1991 1309 1228 531 
z
" transform="scale(0.015625)"/>
       </defs>
       <use xlink:href="#DejaVuSans-32"/>
       <use xlink:href="#DejaVuSans-30" x="63.623047"/>
       <use xlink:href="#DejaVuSans-30" x="127.246094"/>
      </g>
     </g>
    </g>
    <g id="xtick_3">
     <g id="line2d_3">
      <g>
       <use xlink:href="#m242486f127" x="224.808333" y="242.2" style="stroke: #000000; stroke-width: 0.8"/>
      </g>
     </g>
     <g id="text_3">
      <!-- 400 -->
      <g transform="translate(215.264583 256.798437) scale(0.1 -0.1)">
       <defs>
        <path id="DejaVuSans-34" d="M 2419 4116 
L 825 1625 
L 2419 1625 
L 2419 4116 
z
M 2253 4666 
L 3047 4666 
L 3047 1625 
L 3713 1625 
L 3713 1100 
L 3047 1100 
L 3047 0 
L 2419 0 
L 2419 1100 
L 313 1100 
L 313 1709 
L 2253 4666 
z
" transform="scale(0.015625)"/>
       </defs>
       <use xlink:href="#DejaVuSans-34"/>
       <use xlink:href="#DejaVuSans-30" x="63.623047"/>
       <use xlink:href="#DejaVuSans-30" x="127.246094"/>
      </g>
     </g>
    </g>
    <g id="xtick_4">
     <g id="line2d_4">
      <g>
       <use xlink:href="#m242486f127" x="306.75" y="242.2" style="stroke: #000000; stroke-width: 0.8"/>
      </g>
     </g>
     <g id="text_4">
      <!-- 600 -->
      <g transform="translate(297.20625 256.798437) scale(0.1 -0.1)">
       <defs>
        <path id="DejaVuSans-36" d="M 2113 2584 
Q 1688 2584 1439 2293 
Q 1191 2003 1191 1497 
Q 1191 994 1439 701 
Q 1688 409 2113 409 
Q 2538 409 2786 701 
Q 3034 994 3034 1497 
Q 3034 2003 2786 2293 
Q 2538 2584 2113 2584 
z
M 3366 4563 
L 3366 3988 
Q 3128 4100 2886 4159 
Q 2644 4219 2406 4219 
Q 1781 4219 1451 3797 
Q 1122 3375 1075 2522 
Q 1259 2794 1537 2939 
Q 1816 3084 2150 3084 
Q 2853 3084 3261 2657 
Q 3669 2231 3669 1497 
Q 3669 778 3244 343 
Q 2819 -91 2113 -91 
Q 1303 -91 875 529 
Q 447 1150 447 2328 
Q 447 3434 972 4092 
Q 1497 4750 2381 4750 
Q 2619 4750 2861 4703 
Q 3103 4656 3366 4563 
z
" transform="scale(0.015625)"/>
       </defs>
       <use xlink:href="#DejaVuSans-36"/>
       <use xlink:href="#DejaVuSans-30" x="63.623047"/>
       <use xlink:href="#DejaVuSans-30" x="127.246094"/>
      </g>
     </g>
    </g>
    <g id="xtick_5">
     <g id="line2d_5">
      <g>
       <use xlink:href="#m242486f127" x="388.691667" y="242.2" style="stroke: #000000; stroke-width: 0.8"/>
      </g>
     </g>
     <g id="text_5">
      <!-- 800 -->
      <g transform="translate(379.147917 256.798437) scale(0.1 -0.1)">
       <defs>
        <path id="DejaVuSans-38" d="M 2034 2216 
Q 1584 2216 1326 1975 
Q 1069 1734 1069 1313 
Q 1069 891 1326 650 
Q 1584 409 2034 409 
Q 2484 409 2743 651 
Q 3003 894 3003 1313 
Q 3003 1734 2745 1975 
Q 2488 2216 2034 2216 
z
M 1403 2484 
Q 997 2584 770 2862 
Q 544 3141 544 3541 
Q 544 4100 942 4425 
Q 1341 4750 2034 4750 
Q 2731 4750 3128 4425 
Q 3525 4100 3525 3541 
Q 3525 3141 3298 2862 
Q 3072 2584 2669 2484 
Q 3125 2378 3379 2068 
Q 3634 1759 3634 1313 
Q 3634 634 3220 271 
Q 2806 -91 2034 -91 
Q 1263 -91 848 271 
Q 434 634 434 1313 
Q 434 1759 690 2068 
Q 947 2378 1403 2484 
z
M 1172 3481 
Q 1172 3119 1398 2916 
Q 1625 2713 2034 2713 
Q 2441 2713 2670 2916 
Q 2900 3119 2900 3481 
Q 2900 3844 2670 4047 
Q 2441 4250 2034 4250 
Q 1625 4250 1398 4047 
Q 1172 3844 1172 3481 
z
" transform="scale(0.015625)"/>
       </defs>
       <use xlink:href="#DejaVuSans-38"/>
       <use xlink:href="#DejaVuSans-30" x="63.623047"/>
       <use xlink:href="#DejaVuSans-30" x="127.246094"/>
      </g>
     </g>
    </g>
    <g id="xtick_6">
     <g id="line2d_6">
      <g>
       <use xlink:href="#m242486f127" x="470.633333" y="242.2" style="stroke: #000000; stroke-width: 0.8"/>
      </g>
     </g>
     <g id="text_6">
      <!-- 1000 -->
      <g transform="translate(457.908333 256.798437) scale(0.1 -0.1)">
       <defs>
        <path id="DejaVuSans-31" d="M 794 531 
L 1825 531 
L 1825 4091 
L 703 3866 
L 703 4441 
L 1819 4666 
L 2450 4666 
L 2450 531 
L 3481 531 
L 3481 0 
L 794 0 
L 794 531 
z
" transform="scale(0.015625)"/>
       </defs>
       <use xlink:href="#DejaVuSans-31"/>
       <use xlink:href="#DejaVuSans-30" x="63.623047"/>
       <use xlink:href="#DejaVuSans-30" x="127.246094"/>
       <use xlink:href="#DejaVuSans-30" x="190.869141"/>
      </g>
     </g>
    </g>
    <g id="xtick_7">
     <g id="line2d_7">
      <g>
       <use xlink:href="#m242486f127" x="552.575" y="242.2" style="stroke: #000000; stroke-width: 0.8"/>
      </g>
     </g>
     <g id="text_7">
      <!-- 1200 -->
      <g transform="translate(539.85 256.798437) scale(0.1 -0.1)">
       <use xlink:href="#DejaVuSans-31"/>
       <use xlink:href="#DejaVuSans-32" x="63.623047"/>
       <use xlink:href="#DejaVuSans-30" x="127.246094"/>
       <use xlink:href="#DejaVuSans-30" x="190.869141"/>
      </g>
     </g>
    </g>
    <g id="text_8">
     <!-- Seconds -->
     <g transform="translate(277.340156 273.515938) scale(0.14 -0.14)">
      <defs>
       <path id="DejaVuSans-53" d="M 3425 4513 
L 3425 3897 
Q 3066 4069 2747 4153 
Q 2428 4238 2131 4238 
Q 1616 4238 1336 4038 
Q 1056 3838 1056 3469 
Q 1056 3159 1242 3001 
Q 1428 2844 1947 2747 
L 2328 2669 
Q 3034 2534 3370 2195 
Q 3706 1856 3706 1288 
Q 3706 609 3251 259 
Q 2797 -91 1919 -91 
Q 1588 -91 1214 -16 
Q 841 59 441 206 
L 441 856 
Q 825 641 1194 531 
Q 1563 422 1919 422 
Q 2459 422 2753 634 
Q 3047 847 3047 1241 
Q 3047 1584 2836 1778 
Q 2625 1972 2144 2069 
L 1759 2144 
Q 1053 2284 737 2584 
Q 422 2884 422 3419 
Q 422 4038 858 4394 
Q 1294 4750 2059 4750 
Q 2388 4750 2728 4690 
Q 3069 4631 3425 4513 
z
" transform="scale(0.015625)"/>
       <path id="DejaVuSans-65" d="M 3597 1894 
L 3597 1613 
L 953 1613 
Q 991 1019 1311 708 
Q 1631 397 2203 397 
Q 2534 397 2845 478 
Q 3156 559 3463 722 
L 3463 178 
Q 3153 47 2828 -22 
Q 2503 -91 2169 -91 
Q 1331 -91 842 396 
Q 353 884 353 1716 
Q 353 2575 817 3079 
Q 1281 3584 2069 3584 
Q 2775 3584 3186 3129 
Q 3597 2675 3597 1894 
z
M 3022 2063 
Q 3016 2534 2758 2815 
Q 2500 3097 2075 3097 
Q 1594 3097 1305 2825 
Q 1016 2553 972 2059 
L 3022 2063 
z
" transform="scale(0.015625)"/>
       <path id="DejaVuSans-63" d="M 3122 3366 
L 3122 2828 
Q 2878 2963 2633 3030 
Q 2388 3097 2138 3097 
Q 1578 3097 1268 2742 
Q 959 2388 959 1747 
Q 959 1106 1268 751 
Q 1578 397 2138 397 
Q 2388 397 2633 464 
Q 2878 531 3122 666 
L 3122 134 
Q 2881 22 2623 -34 
Q 2366 -91 2075 -91 
Q 1284 -91 818 406 
Q 353 903 353 1747 
Q 353 2603 823 3093 
Q 1294 3584 2113 3584 
Q 2378 3584 2631 3529 
Q 2884 3475 3122 3366 
z
" transform="scale(0.015625)"/>
       <path id="DejaVuSans-6f" d="M 1959 3097 
Q 1497 3097 1228 2736 
Q 959 2375 959 1747 
Q 959 1119 1226 758 
Q 1494 397 1959 397 
Q 2419 397 2687 759 
Q 2956 1122 2956 1747 
Q 2956 2369 2687 2733 
Q 2419 3097 1959 3097 
z
M 1959 3584 
Q 2709 3584 3137 3096 
Q 3566 2609 3566 1747 
Q 3566 888 3137 398 
Q 2709 -91 1959 -91 
Q 1206 -91 779 398 
Q 353 888 353 1747 
Q 353 2609 779 3096 
Q 1206 3584 1959 3584 
z
" transform="scale(0.015625)"/>
       <path id="DejaVuSans-6e" d="M 3513 2113 
L 3513 0 
L 2938 0 
L 2938 2094 
Q 2938 2591 2744 2837 
Q 2550 3084 2163 3084 
Q 1697 3084 1428 2787 
Q 1159 2491 1159 1978 
L 1159 0 
L 581 0 
L 581 3500 
L 1159 3500 
L 1159 2956 
Q 1366 3272 1645 3428 
Q 1925 3584 2291 3584 
Q 2894 3584 3203 3211 
Q 3513 2838 3513 2113 
z
" transform="scale(0.015625)"/>
       <path id="DejaVuSans-64" d="M 2906 2969 
L 2906 4863 
L 3481 4863 
L 3481 0 
L 2906 0 
L 2906 525 
Q 2725 213 2448 61 
Q 2172 -91 1784 -91 
Q 1150 -91 751 415 
Q 353 922 353 1747 
Q 353 2572 751 3078 
Q 1150 3584 1784 3584 
Q 2172 3584 2448 3432 
Q 2725 3281 2906 2969 
z
M 947 1747 
Q 947 1113 1208 752 
Q 1469 391 1925 391 
Q 2381 391 2643 752 
Q 2906 1113 2906 1747 
Q 2906 2381 2643 2742 
Q 2381 3103 1925 3103 
Q 1469 3103 1208 2742 
Q 947 2381 947 1747 
z
" transform="scale(0.015625)"/>
       <path id="DejaVuSans-73" d="M 2834 3397 
L 2834 2853 
Q 2591 2978 2328 3040 
Q 2066 3103 1784 3103 
Q 1356 3103 1142 2972 
Q 928 2841 928 2578 
Q 928 2378 1081 2264 
Q 1234 2150 1697 2047 
L 1894 2003 
Q 2506 1872 2764 1633 
Q 3022 1394 3022 966 
Q 3022 478 2636 193 
Q 2250 -91 1575 -91 
Q 1294 -91 989 -36 
Q 684 19 347 128 
L 347 722 
Q 666 556 975 473 
Q 1284 391 1588 391 
Q 1994 391 2212 530 
Q 2431 669 2431 922 
Q 2431 1156 2273 1281 
Q 2116 1406 1581 1522 
L 1381 1569 
Q 847 1681 609 1914 
Q 372 2147 372 2553 
Q 372 3047 722 3315 
Q 1072 3584 1716 3584 
Q 2034 3584 2315 3537 
Q 2597 3491 2834 3397 
z
" transform="scale(0.015625)"/>
      </defs>
      <use xlink:href="#DejaVuSans-53"/>
      <use xlink:href="#DejaVuSans-65" x="63.476562"/>
      <use xlink:href="#DejaVuSans-63" x="125"/>
      <use xlink:href="#DejaVuSans-6f" x="179.980469"/>
      <use xlink:href="#DejaVuSans-6e" x="241.162109"/>
      <use xlink:href="#DejaVuSans-64" x="304.541016"/>
      <use xlink:href="#DejaVuSans-73" x="368.017578"/>
     </g>
    </g>
   </g>
   <g id="matplotlib.axis_2">
    <g id="ytick_1">
     <g id="line2d_8">
      <defs>
       <path id="m0a61f4561c" d="M 0 0 
L -3.5 0 
" style="stroke: #000000; stroke-width: 0.8"/>
      </defs>
      <g>
       <use xlink:href="#m0a61f4561c" x="60.925" y="242.2" style="stroke: #000000; stroke-width: 0.8"/>
      </g>
     </g>
     <g id="text_9">
      <!-- 0 -->
      <g transform="translate(47.5625 245.999219) scale(0.1 -0.1)">
       <use xlink:href="#DejaVuSans-30"/>
      </g>
     </g>
    </g>
    <g id="ytick_2">
     <g id="line2d_9">
      <g>
       <use xlink:href="#m0a61f4561c" x="60.925" y="207.952072" style="stroke: #000000; stroke-width: 0.8"/>
      </g>
     </g>
     <g id="text_10">
      <!-- 200 -->
      <g transform="translate(34.8375 211.751291) scale(0.1 -0.1)">
       <use xlink:href="#DejaVuSans-32"/>
       <use xlink:href="#DejaVuSans-30" x="63.623047"/>
       <use xlink:href="#DejaVuSans-30" x="127.246094"/>
      </g>
     </g>
    </g>
    <g id="ytick_3">
     <g id="line2d_10">
      <g>
       <use xlink:href="#m0a61f4561c" x="60.925" y="173.704144" style="stroke: #000000; stroke-width: 0.8"/>
      </g>
     </g>
     <g id="text_11">
      <!-- 400 -->
      <g transform="translate(34.8375 177.503362) scale(0.1 -0.1)">
       <use xlink:href="#DejaVuSans-34"/>
       <use xlink:href="#DejaVuSans-30" x="63.623047"/>
       <use xlink:href="#DejaVuSans-30" x="127.246094"/>
      </g>
     </g>
    </g>
    <g id="ytick_4">
     <g id="line2d_11">
      <g>
       <use xlink:href="#m0a61f4561c" x="60.925" y="139.456215" style="stroke: #000000; stroke-width: 0.8"/>
      </g>
     </g>
     <g id="text_12">
      <!-- 600 -->
      <g transform="translate(34.8375 143.255434) scale(0.1 -0.1)">
       <use xlink:href="#DejaVuSans-36"/>
       <use xlink:href="#DejaVuSans-30" x="63.623047"/>
       <use xlink:href="#DejaVuSans-30" x="127.246094"/>
      </g>
     </g>
    </g>
    <g id="ytick_5">
     <g id="line2d_12">
      <g>
       <use xlink:href="#m0a61f4561c" x="60.925" y="105.208287" style="stroke: #000000; stroke-width: 0.8"/>
      </g>
     </g>
     <g id="text_13">
      <!-- 800 -->
      <g transform="translate(34.8375 109.007506) scale(0.1 -0.1)">
       <use xlink:href="#DejaVuSans-38"/>
       <use xlink:href="#DejaVuSans-30" x="63.623047"/>
       <use xlink:href="#DejaVuSans-30" x="127.246094"/>
      </g>
     </g>
    </g>
    <g id="ytick_6">
     <g id="line2d_13">
      <g>
       <use xlink:href="#m0a61f4561c" x="60.925" y="70.960359" style="stroke: #000000; stroke-width: 0.8"/>
      </g>
     </g>
     <g id="text_14">
      <!-- 1000 -->
      <g transform="translate(28.475 74.759578) scale(0.1 -0.1)">
       <use xlink:href="#DejaVuSans-31"/>
       <use xlink:href="#DejaVuSans-30" x="63.623047"/>
       <use xlink:href="#DejaVuSans-30" x="127.246094"/>
       <use xlink:href="#DejaVuSans-30" x="190.869141"/>
      </g>
     </g>
    </g>
    <g id="text_15">
     <!-- Frequency -->
     <g transform="translate(21.563437 178.661563) rotate(-90) scale(0.14 -0.14)">
      <defs>
       <path id="DejaVuSans-46" d="M 628 4666 
L 3309 4666 
L 3309 4134 
L 1259 4134 
L 1259 2759 
L 3109 2759 
L 3109 2228 
L 1259 2228 
L 1259 0 
L 628 0 
L 628 4666 
z
" transform="scale(0.015625)"/>
       <path id="DejaVuSans-72" d="M 2631 2963 
Q 2534 3019 2420 3045 
Q 2306 3072 2169 3072 
Q 1681 3072 1420 2755 
Q 1159 2438 1159 1844 
L 1159 0 
L 581 0 
L 581 3500 
L 1159 3500 
L 1159 2956 
Q 1341 3275 1631 3429 
Q 1922 3584 2338 3584 
Q 2397 3584 2469 3576 
Q 2541 3569 2628 3553 
L 2631 2963 
z
" transform="scale(0.015625)"/>
       <path id="DejaVuSans-71" d="M 947 1747 
Q 947 1113 1208 752 
Q 1469 391 1925 391 
Q 2381 391 2643 752 
Q 2906 1113 2906 1747 
Q 2906 2381 2643 2742 
Q 2381 3103 1925 3103 
Q 1469 3103 1208 2742 
Q 947 2381 947 1747 
z
M 2906 525 
Q 2725 213 2448 61 
Q 2172 -91 1784 -91 
Q 1150 -91 751 415 
Q 353 922 353 1747 
Q 353 2572 751 3078 
Q 1150 3584 1784 3584 
Q 2172 3584 2448 3432 
Q 2725 3281 2906 2969 
L 2906 3500 
L 3481 3500 
L 3481 -1331 
L 2906 -1331 
L 2906 525 
z
" transform="scale(0.015625)"/>
       <path id="DejaVuSans-75" d="M 544 1381 
L 544 3500 
L 1119 3500 
L 1119 1403 
Q 1119 906 1312 657 
Q 1506 409 1894 409 
Q 2359 409 2629 706 
Q 2900 1003 2900 1516 
L 2900 3500 
L 3475 3500 
L 3475 0 
L 2900 0 
L 2900 538 
Q 2691 219 2414 64 
Q 2138 -91 1772 -91 
Q 1169 -91 856 284 
Q 544 659 544 1381 
z
M 1991 3584 
L 1991 3584 
z
" transform="scale(0.015625)"/>
       <path id="DejaVuSans-79" d="M 2059 -325 
Q 1816 -950 1584 -1140 
Q 1353 -1331 966 -1331 
L 506 -1331 
L 506 -850 
L 844 -850 
Q 1081 -850 1212 -737 
Q 1344 -625 1503 -206 
L 1606 56 
L 191 3500 
L 800 3500 
L 1894 763 
L 2988 3500 
L 3597 3500 
L 2059 -325 
z
" transform="scale(0.015625)"/>
      </defs>
      <use xlink:href="#DejaVuSans-46"/>
      <use xlink:href="#DejaVuSans-72" x="50.269531"/>
      <use xlink:href="#DejaVuSans-65" x="89.132812"/>
      <use xlink:href="#DejaVuSans-71" x="150.65625"/>
      <use xlink:href="#DejaVuSans-75" x="214.132812"/>
      <use xlink:href="#DejaVuSans-65" x="277.511719"/>
      <use xlink:href="#DejaVuSans-6e" x="339.035156"/>
      <use xlink:href="#DejaVuSans-63" x="402.414062"/>
      <use xlink:href="#DejaVuSans-79" x="457.394531"/>
     </g>
    </g>
   </g>
   <g id="line2d_14">
    <path d="M 75.6745 242.2 
L 75.6745 42.8 
" clip-path="url(#p90bfe55952)" style="fill: none; stroke-dasharray: 5.55,2.4; stroke-dashoffset: 0; stroke: #b40426; stroke-width: 1.5"/>
   </g>
   <g id="patch_153">
    <path d="M 60.925 242.2 
L 60.925 42.8 
" style="fill: none; stroke: #000000; stroke-width: 0.8; stroke-linejoin: miter; stroke-linecap: square"/>
   </g>
   <g id="patch_154">
    <path d="M 552.575 242.2 
L 552.575 42.8 
" style="fill: none; stroke: #000000; stroke-width: 0.8; stroke-linejoin: miter; stroke-linecap: square"/>
   </g>
   <g id="patch_155">
    <path d="M 60.925 242.2 
L 552.575 242.2 
" style="fill: none; stroke: #000000; stroke-width: 0.8; stroke-linejoin: miter; stroke-linecap: square"/>
   </g>
   <g id="patch_156">
    <path d="M 60.925 42.8 
L 552.575 42.8 
" style="fill: none; stroke: #000000; stroke-width: 0.8; stroke-linejoin: miter; stroke-linecap: square"/>
   </g>
   <g id="text_16">
    <!-- Isolation -->
    <g transform="translate(272.87875 22.8) scale(0.16 -0.16)">
     <defs>
      <path id="DejaVuSans-49" d="M 628 4666 
L 1259 4666 
L 1259 0 
L 628 0 
L 628 4666 
z
" transform="scale(0.015625)"/>
      <path id="DejaVuSans-6c" d="M 603 4863 
L 1178 4863 
L 1178 0 
L 603 0 
L 603 4863 
z
" transform="scale(0.015625)"/>
      <path id="DejaVuSans-61" d="M 2194 1759 
Q 1497 1759 1228 1600 
Q 959 1441 959 1056 
Q 959 750 1161 570 
Q 1363 391 1709 391 
Q 2188 391 2477 730 
Q 2766 1069 2766 1631 
L 2766 1759 
L 2194 1759 
z
M 3341 1997 
L 3341 0 
L 2766 0 
L 2766 531 
Q 2569 213 2275 61 
Q 1981 -91 1556 -91 
Q 1019 -91 701 211 
Q 384 513 384 1019 
Q 384 1609 779 1909 
Q 1175 2209 1959 2209 
L 2766 2209 
L 2766 2266 
Q 2766 2663 2505 2880 
Q 2244 3097 1772 3097 
Q 1472 3097 1187 3025 
Q 903 2953 641 2809 
L 641 3341 
Q 956 3463 1253 3523 
Q 1550 3584 1831 3584 
Q 2591 3584 2966 3190 
Q 3341 2797 3341 1997 
z
" transform="scale(0.015625)"/>
      <path id="DejaVuSans-74" d="M 1172 4494 
L 1172 3500 
L 2356 3500 
L 2356 3053 
L 1172 3053 
L 1172 1153 
Q 1172 725 1289 603 
Q 1406 481 1766 481 
L 2356 481 
L 2356 0 
L 1766 0 
Q 1100 0 847 248 
Q 594 497 594 1153 
L 594 3053 
L 172 3053 
L 172 3500 
L 594 3500 
L 594 4494 
L 1172 4494 
z
" transform="scale(0.015625)"/>
      <path id="DejaVuSans-69" d="M 603 3500 
L 1178 3500 
L 1178 0 
L 603 0 
L 603 3500 
z
M 603 4863 
L 1178 4863 
L 1178 4134 
L 603 4134 
L 603 4863 
z
" transform="scale(0.015625)"/>
     </defs>
     <use xlink:href="#DejaVuSans-49"/>
     <use xlink:href="#DejaVuSans-73" x="29.492188"/>
     <use xlink:href="#DejaVuSans-6f" x="81.591797"/>
     <use xlink:href="#DejaVuSans-6c" x="142.773438"/>
     <use xlink:href="#DejaVuSans-61" x="170.556641"/>
     <use xlink:href="#DejaVuSans-74" x="231.835938"/>
     <use xlink:href="#DejaVuSans-69" x="271.044922"/>
     <use xlink:href="#DejaVuSans-6f" x="298.828125"/>
     <use xlink:href="#DejaVuSans-6e" x="360.009766"/>
    </g>
   </g>
  </g>
 </g>
 <defs>
  <clipPath id="p90bfe55952">
   <rect x="60.925" y="42.8" width="491.65" height="199.4"/>
  </clipPath>
 </defs>
</svg>
