<?xml version="1.0" encoding="utf-8" standalone="no"?>
<!DOCTYPE svg PUBLIC "-//W3C//DTD SVG 1.1//EN"
  "http://www.w3.org/Graphics/SVG/1.1/DTD/svg11.dtd">
<svg xmlns:xlink="http://www.w3.org/1999/xlink" width="576pt" height="288pt" viewBox="0 0 576 288" xmlns="http://www.w3.org/2000/svg" version="1.1">
 <metadata>
  <rdf:RDF xmlns:dc="http://purl.org/dc/elements/1.1/" xmlns:cc="http://creativecommons.org/ns#" xmlns:rdf="http://www.w3.org/1999/02/22-rdf-syntax-ns#">
   <cc:Work>
    <dc:type rdf:resource="http://purl.org/dc/dcmitype/StillImage"/>
    <dc:date>2025-04-04T13:16:32.706826</dc:date>
    <dc:format>image/svg+xml</dc:format>
    <dc:creator>
     <cc:Agent>
      <dc:title>Matplotlib v3.7.1, https://matplotlib.org/</dc:title>
     </cc:Agent>
    </dc:creator>
   </cc:Work>
  </rdf:RDF>
 </metadata>
 <defs>
  <style type="text/css">*{stroke-linejoin: round; stroke-linecap: butt}</style>
 </defs>
 <g id="figure_1">
  <g id="patch_1">
   <path d="M 0 288 
L 576 288 
L 576 0 
L 0 0 
L 0 288 
z
" style="fill: none"/>
  </g>
  <g id="axes_1">
   <g id="patch_2">
    <path d="M 61.05 242.2 
L 565.2 242.2 
L 565.2 42.8 
L 61.05 42.8 
z
" style="fill: #ffffff"/>
   </g>
   <g id="patch_3">
    <path d="M 83.965909 242.2 
L 88.549091 242.2 
L 88.549091 57.389377 
L 83.965909 57.389377 
z
" clip-path="url(#p1372e715c1)" style="fill: #87ceeb; opacity: 0.7; stroke: #000000; stroke-linejoin: miter"/>
   </g>
   <g id="patch_4">
    <path d="M 88.549091 242.2 
L 93.132273 242.2 
L 93.132273 112.595627 
L 88.549091 112.595627 
z
" clip-path="url(#p1372e715c1)" style="fill: #87ceeb; opacity: 0.7; stroke: #000000; stroke-linejoin: miter"/>
   </g>
   <g id="patch_5">
    <path d="M 93.132273 242.2 
L 97.715455 242.2 
L 97.715455 113.661842 
L 93.132273 113.661842 
z
" clip-path="url(#p1372e715c1)" style="fill: #87ceeb; opacity: 0.7; stroke: #000000; stroke-linejoin: miter"/>
   </g>
   <g id="patch_6">
    <path d="M 97.715455 242.2 
L 102.298636 242.2 
L 102.298636 94.114565 
L 97.715455 94.114565 
z
" clip-path="url(#p1372e715c1)" style="fill: #87ceeb; opacity: 0.7; stroke: #000000; stroke-linejoin: miter"/>
   </g>
   <g id="patch_7">
    <path d="M 102.298636 242.2 
L 106.881818 242.2 
L 106.881818 85.940249 
L 102.298636 85.940249 
z
" clip-path="url(#p1372e715c1)" style="fill: #87ceeb; opacity: 0.7; stroke: #000000; stroke-linejoin: miter"/>
   </g>
   <g id="patch_8">
    <path d="M 106.881818 242.2 
L 111.465 242.2 
L 111.465 87.124932 
L 106.881818 87.124932 
z
" clip-path="url(#p1372e715c1)" style="fill: #87ceeb; opacity: 0.7; stroke: #000000; stroke-linejoin: miter"/>
   </g>
   <g id="patch_9">
    <path d="M 111.465 242.2 
L 116.048182 242.2 
L 116.048182 72.908731 
L 111.465 72.908731 
z
" clip-path="url(#p1372e715c1)" style="fill: #87ceeb; opacity: 0.7; stroke: #000000; stroke-linejoin: miter"/>
   </g>
   <g id="patch_10">
    <path d="M 116.048182 242.2 
L 120.631364 242.2 
L 120.631364 70.7763 
L 116.048182 70.7763 
z
" clip-path="url(#p1372e715c1)" style="fill: #87ceeb; opacity: 0.7; stroke: #000000; stroke-linejoin: miter"/>
   </g>
   <g id="patch_11">
    <path d="M 120.631364 242.2 
L 125.214545 242.2 
L 125.214545 72.079452 
L 120.631364 72.079452 
z
" clip-path="url(#p1372e715c1)" style="fill: #87ceeb; opacity: 0.7; stroke: #000000; stroke-linejoin: miter"/>
   </g>
   <g id="patch_12">
    <path d="M 125.214545 242.2 
L 129.797727 242.2 
L 129.797727 65.80063 
L 125.214545 65.80063 
z
" clip-path="url(#p1372e715c1)" style="fill: #87ceeb; opacity: 0.7; stroke: #000000; stroke-linejoin: miter"/>
   </g>
   <g id="patch_13">
    <path d="M 129.797727 242.2 
L 134.380909 242.2 
L 134.380909 58.337124 
L 129.797727 58.337124 
z
" clip-path="url(#p1372e715c1)" style="fill: #87ceeb; opacity: 0.7; stroke: #000000; stroke-linejoin: miter"/>
   </g>
   <g id="patch_14">
    <path d="M 134.380909 242.2 
L 138.964091 242.2 
L 138.964091 66.748377 
L 134.380909 66.748377 
z
" clip-path="url(#p1372e715c1)" style="fill: #87ceeb; opacity: 0.7; stroke: #000000; stroke-linejoin: miter"/>
   </g>
   <g id="patch_15">
    <path d="M 138.964091 242.2 
L 143.547273 242.2 
L 143.547273 52.295238 
L 138.964091 52.295238 
z
" clip-path="url(#p1372e715c1)" style="fill: #87ceeb; opacity: 0.7; stroke: #000000; stroke-linejoin: miter"/>
   </g>
   <g id="patch_16">
    <path d="M 143.547273 242.2 
L 148.130455 242.2 
L 148.130455 63.786668 
L 143.547273 63.786668 
z
" clip-path="url(#p1372e715c1)" style="fill: #87ceeb; opacity: 0.7; stroke: #000000; stroke-linejoin: miter"/>
   </g>
   <g id="patch_17">
    <path d="M 148.130455 242.2 
L 152.713636 242.2 
L 152.713636 53.361453 
L 148.130455 53.361453 
z
" clip-path="url(#p1372e715c1)" style="fill: #87ceeb; opacity: 0.7; stroke: #000000; stroke-linejoin: miter"/>
   </g>
   <g id="patch_18">
    <path d="M 152.713636 242.2 
L 157.296818 242.2 
L 157.296818 60.943428 
L 152.713636 60.943428 
z
" clip-path="url(#p1372e715c1)" style="fill: #87ceeb; opacity: 0.7; stroke: #000000; stroke-linejoin: miter"/>
   </g>
   <g id="patch_19">
    <path d="M 157.296818 242.2 
L 161.88 242.2 
L 161.88 66.866845 
L 157.296818 66.866845 
z
" clip-path="url(#p1372e715c1)" style="fill: #87ceeb; opacity: 0.7; stroke: #000000; stroke-linejoin: miter"/>
   </g>
   <g id="patch_20">
    <path d="M 161.88 242.2 
L 166.463182 242.2 
L 166.463182 77.765933 
L 161.88 77.765933 
z
" clip-path="url(#p1372e715c1)" style="fill: #87ceeb; opacity: 0.7; stroke: #000000; stroke-linejoin: miter"/>
   </g>
   <g id="patch_21">
    <path d="M 166.463182 242.2 
L 171.046364 242.2 
L 171.046364 80.253768 
L 166.463182 80.253768 
z
" clip-path="url(#p1372e715c1)" style="fill: #87ceeb; opacity: 0.7; stroke: #000000; stroke-linejoin: miter"/>
   </g>
   <g id="patch_22">
    <path d="M 171.046364 242.2 
L 175.629545 242.2 
L 175.629545 91.034388 
L 171.046364 91.034388 
z
" clip-path="url(#p1372e715c1)" style="fill: #87ceeb; opacity: 0.7; stroke: #000000; stroke-linejoin: miter"/>
   </g>
   <g id="patch_23">
    <path d="M 175.629545 242.2 
L 180.212727 242.2 
L 180.212727 97.076274 
L 175.629545 97.076274 
z
" clip-path="url(#p1372e715c1)" style="fill: #87ceeb; opacity: 0.7; stroke: #000000; stroke-linejoin: miter"/>
   </g>
   <g id="patch_24">
    <path d="M 180.212727 242.2 
L 184.795909 242.2 
L 184.795909 103.710501 
L 180.212727 103.710501 
z
" clip-path="url(#p1372e715c1)" style="fill: #87ceeb; opacity: 0.7; stroke: #000000; stroke-linejoin: miter"/>
   </g>
   <g id="patch_25">
    <path d="M 184.795909 242.2 
L 189.379091 242.2 
L 189.379091 116.386614 
L 184.795909 116.386614 
z
" clip-path="url(#p1372e715c1)" style="fill: #87ceeb; opacity: 0.7; stroke: #000000; stroke-linejoin: miter"/>
   </g>
   <g id="patch_26">
    <path d="M 189.379091 242.2 
L 193.962273 242.2 
L 193.962273 126.219487 
L 189.379091 126.219487 
z
" clip-path="url(#p1372e715c1)" style="fill: #87ceeb; opacity: 0.7; stroke: #000000; stroke-linejoin: miter"/>
   </g>
   <g id="patch_27">
    <path d="M 193.962273 242.2 
L 198.545455 242.2 
L 198.545455 130.839753 
L 193.962273 130.839753 
z
" clip-path="url(#p1372e715c1)" style="fill: #87ceeb; opacity: 0.7; stroke: #000000; stroke-linejoin: miter"/>
   </g>
   <g id="patch_28">
    <path d="M 198.545455 242.2 
L 203.128636 242.2 
L 203.128636 145.885233 
L 198.545455 145.885233 
z
" clip-path="url(#p1372e715c1)" style="fill: #87ceeb; opacity: 0.7; stroke: #000000; stroke-linejoin: miter"/>
   </g>
   <g id="patch_29">
    <path d="M 203.128636 242.2 
L 207.711818 242.2 
L 207.711818 151.571714 
L 203.128636 151.571714 
z
" clip-path="url(#p1372e715c1)" style="fill: #87ceeb; opacity: 0.7; stroke: #000000; stroke-linejoin: miter"/>
   </g>
   <g id="patch_30">
    <path d="M 207.711818 242.2 
L 212.295 242.2 
L 212.295 159.153688 
L 207.711818 159.153688 
z
" clip-path="url(#p1372e715c1)" style="fill: #87ceeb; opacity: 0.7; stroke: #000000; stroke-linejoin: miter"/>
   </g>
   <g id="patch_31">
    <path d="M 212.295 242.2 
L 216.878182 242.2 
L 216.878182 159.390625 
L 212.295 159.390625 
z
" clip-path="url(#p1372e715c1)" style="fill: #87ceeb; opacity: 0.7; stroke: #000000; stroke-linejoin: miter"/>
   </g>
   <g id="patch_32">
    <path d="M 216.878182 242.2 
L 221.461364 242.2 
L 221.461364 166.498726 
L 216.878182 166.498726 
z
" clip-path="url(#p1372e715c1)" style="fill: #87ceeb; opacity: 0.7; stroke: #000000; stroke-linejoin: miter"/>
   </g>
   <g id="patch_33">
    <path d="M 221.461364 242.2 
L 226.044545 242.2 
L 226.044545 176.450067 
L 221.461364 176.450067 
z
" clip-path="url(#p1372e715c1)" style="fill: #87ceeb; opacity: 0.7; stroke: #000000; stroke-linejoin: miter"/>
   </g>
   <g id="patch_34">
    <path d="M 226.044545 242.2 
L 230.627727 242.2 
L 230.627727 184.268978 
L 226.044545 184.268978 
z
" clip-path="url(#p1372e715c1)" style="fill: #87ceeb; opacity: 0.7; stroke: #000000; stroke-linejoin: miter"/>
   </g>
   <g id="patch_35">
    <path d="M 230.627727 242.2 
L 235.210909 242.2 
L 235.210909 186.99375 
L 230.627727 186.99375 
z
" clip-path="url(#p1372e715c1)" style="fill: #87ceeb; opacity: 0.7; stroke: #000000; stroke-linejoin: miter"/>
   </g>
   <g id="patch_36">
    <path d="M 235.210909 242.2 
L 239.794091 242.2 
L 239.794091 191.495547 
L 235.210909 191.495547 
z
" clip-path="url(#p1372e715c1)" style="fill: #87ceeb; opacity: 0.7; stroke: #000000; stroke-linejoin: miter"/>
   </g>
   <g id="patch_37">
    <path d="M 239.794091 242.2 
L 244.377273 242.2 
L 244.377273 195.760408 
L 239.794091 195.760408 
z
" clip-path="url(#p1372e715c1)" style="fill: #87ceeb; opacity: 0.7; stroke: #000000; stroke-linejoin: miter"/>
   </g>
   <g id="patch_38">
    <path d="M 244.377273 242.2 
L 248.960455 242.2 
L 248.960455 197.537433 
L 244.377273 197.537433 
z
" clip-path="url(#p1372e715c1)" style="fill: #87ceeb; opacity: 0.7; stroke: #000000; stroke-linejoin: miter"/>
   </g>
   <g id="patch_39">
    <path d="M 248.960455 242.2 
L 253.543636 242.2 
L 253.543636 205.356344 
L 248.960455 205.356344 
z
" clip-path="url(#p1372e715c1)" style="fill: #87ceeb; opacity: 0.7; stroke: #000000; stroke-linejoin: miter"/>
   </g>
   <g id="patch_40">
    <path d="M 253.543636 242.2 
L 258.126818 242.2 
L 258.126818 209.384268 
L 253.543636 209.384268 
z
" clip-path="url(#p1372e715c1)" style="fill: #87ceeb; opacity: 0.7; stroke: #000000; stroke-linejoin: miter"/>
   </g>
   <g id="patch_41">
    <path d="M 258.126818 242.2 
L 262.71 242.2 
L 262.71 212.464445 
L 258.126818 212.464445 
z
" clip-path="url(#p1372e715c1)" style="fill: #87ceeb; opacity: 0.7; stroke: #000000; stroke-linejoin: miter"/>
   </g>
   <g id="patch_42">
    <path d="M 262.71 242.2 
L 267.293182 242.2 
L 267.293182 216.610837 
L 262.71 216.610837 
z
" clip-path="url(#p1372e715c1)" style="fill: #87ceeb; opacity: 0.7; stroke: #000000; stroke-linejoin: miter"/>
   </g>
   <g id="patch_43">
    <path d="M 267.293182 242.2 
L 271.876364 242.2 
L 271.876364 217.08471 
L 267.293182 217.08471 
z
" clip-path="url(#p1372e715c1)" style="fill: #87ceeb; opacity: 0.7; stroke: #000000; stroke-linejoin: miter"/>
   </g>
   <g id="patch_44">
    <path d="M 271.876364 242.2 
L 276.459545 242.2 
L 276.459545 220.875697 
L 271.876364 220.875697 
z
" clip-path="url(#p1372e715c1)" style="fill: #87ceeb; opacity: 0.7; stroke: #000000; stroke-linejoin: miter"/>
   </g>
   <g id="patch_45">
    <path d="M 276.459545 242.2 
L 281.042727 242.2 
L 281.042727 222.297318 
L 276.459545 222.297318 
z
" clip-path="url(#p1372e715c1)" style="fill: #87ceeb; opacity: 0.7; stroke: #000000; stroke-linejoin: miter"/>
   </g>
   <g id="patch_46">
    <path d="M 281.042727 242.2 
L 285.625909 242.2 
L 285.625909 226.206773 
L 281.042727 226.206773 
z
" clip-path="url(#p1372e715c1)" style="fill: #87ceeb; opacity: 0.7; stroke: #000000; stroke-linejoin: miter"/>
   </g>
   <g id="patch_47">
    <path d="M 285.625909 242.2 
L 290.209091 242.2 
L 290.209091 226.44371 
L 285.625909 226.44371 
z
" clip-path="url(#p1372e715c1)" style="fill: #87ceeb; opacity: 0.7; stroke: #000000; stroke-linejoin: miter"/>
   </g>
   <g id="patch_48">
    <path d="M 290.209091 242.2 
L 294.792273 242.2 
L 294.792273 227.391456 
L 290.209091 227.391456 
z
" clip-path="url(#p1372e715c1)" style="fill: #87ceeb; opacity: 0.7; stroke: #000000; stroke-linejoin: miter"/>
   </g>
   <g id="patch_49">
    <path d="M 294.792273 242.2 
L 299.375455 242.2 
L 299.375455 232.248659 
L 294.792273 232.248659 
z
" clip-path="url(#p1372e715c1)" style="fill: #87ceeb; opacity: 0.7; stroke: #000000; stroke-linejoin: miter"/>
   </g>
   <g id="patch_50">
    <path d="M 299.375455 242.2 
L 303.958636 242.2 
L 303.958636 230.353165 
L 299.375455 230.353165 
z
" clip-path="url(#p1372e715c1)" style="fill: #87ceeb; opacity: 0.7; stroke: #000000; stroke-linejoin: miter"/>
   </g>
   <g id="patch_51">
    <path d="M 303.958636 242.2 
L 308.541818 242.2 
L 308.541818 231.893254 
L 303.958636 231.893254 
z
" clip-path="url(#p1372e715c1)" style="fill: #87ceeb; opacity: 0.7; stroke: #000000; stroke-linejoin: miter"/>
   </g>
   <g id="patch_52">
    <path d="M 308.541818 242.2 
L 313.125 242.2 
L 313.125 234.025684 
L 308.541818 234.025684 
z
" clip-path="url(#p1372e715c1)" style="fill: #87ceeb; opacity: 0.7; stroke: #000000; stroke-linejoin: miter"/>
   </g>
   <g id="patch_53">
    <path d="M 313.125 242.2 
L 317.708182 242.2 
L 317.708182 234.854962 
L 313.125 234.854962 
z
" clip-path="url(#p1372e715c1)" style="fill: #87ceeb; opacity: 0.7; stroke: #000000; stroke-linejoin: miter"/>
   </g>
   <g id="patch_54">
    <path d="M 317.708182 242.2 
L 322.291364 242.2 
L 322.291364 234.736494 
L 317.708182 234.736494 
z
" clip-path="url(#p1372e715c1)" style="fill: #87ceeb; opacity: 0.7; stroke: #000000; stroke-linejoin: miter"/>
   </g>
   <g id="patch_55">
    <path d="M 322.291364 242.2 
L 326.874545 242.2 
L 326.874545 235.684241 
L 322.291364 235.684241 
z
" clip-path="url(#p1372e715c1)" style="fill: #87ceeb; opacity: 0.7; stroke: #000000; stroke-linejoin: miter"/>
   </g>
   <g id="patch_56">
    <path d="M 326.874545 242.2 
L 331.457727 242.2 
L 331.457727 235.210367 
L 326.874545 235.210367 
z
" clip-path="url(#p1372e715c1)" style="fill: #87ceeb; opacity: 0.7; stroke: #000000; stroke-linejoin: miter"/>
   </g>
   <g id="patch_57">
    <path d="M 331.457727 242.2 
L 336.040909 242.2 
L 336.040909 237.461266 
L 331.457727 237.461266 
z
" clip-path="url(#p1372e715c1)" style="fill: #87ceeb; opacity: 0.7; stroke: #000000; stroke-linejoin: miter"/>
   </g>
   <g id="patch_58">
    <path d="M 336.040909 242.2 
L 340.624091 242.2 
L 340.624091 235.802709 
L 336.040909 235.802709 
z
" clip-path="url(#p1372e715c1)" style="fill: #87ceeb; opacity: 0.7; stroke: #000000; stroke-linejoin: miter"/>
   </g>
   <g id="patch_59">
    <path d="M 340.624091 242.2 
L 345.207273 242.2 
L 345.207273 237.224329 
L 340.624091 237.224329 
z
" clip-path="url(#p1372e715c1)" style="fill: #87ceeb; opacity: 0.7; stroke: #000000; stroke-linejoin: miter"/>
   </g>
   <g id="patch_60">
    <path d="M 345.207273 242.2 
L 349.790455 242.2 
L 349.790455 238.172076 
L 345.207273 238.172076 
z
" clip-path="url(#p1372e715c1)" style="fill: #87ceeb; opacity: 0.7; stroke: #000000; stroke-linejoin: miter"/>
   </g>
   <g id="patch_61">
    <path d="M 349.790455 242.2 
L 354.373636 242.2 
L 354.373636 239.475228 
L 349.790455 239.475228 
z
" clip-path="url(#p1372e715c1)" style="fill: #87ceeb; opacity: 0.7; stroke: #000000; stroke-linejoin: miter"/>
   </g>
   <g id="patch_62">
    <path d="M 354.373636 242.2 
L 358.956818 242.2 
L 358.956818 239.119823 
L 354.373636 239.119823 
z
" clip-path="url(#p1372e715c1)" style="fill: #87ceeb; opacity: 0.7; stroke: #000000; stroke-linejoin: miter"/>
   </g>
   <g id="patch_63">
    <path d="M 358.956818 242.2 
L 363.54 242.2 
L 363.54 238.64595 
L 358.956818 238.64595 
z
" clip-path="url(#p1372e715c1)" style="fill: #87ceeb; opacity: 0.7; stroke: #000000; stroke-linejoin: miter"/>
   </g>
   <g id="patch_64">
    <path d="M 363.54 242.2 
L 368.123182 242.2 
L 368.123182 240.06757 
L 363.54 240.06757 
z
" clip-path="url(#p1372e715c1)" style="fill: #87ceeb; opacity: 0.7; stroke: #000000; stroke-linejoin: miter"/>
   </g>
   <g id="patch_65">
    <path d="M 368.123182 242.2 
L 372.706364 242.2 
L 372.706364 239.593696 
L 368.123182 239.593696 
z
" clip-path="url(#p1372e715c1)" style="fill: #87ceeb; opacity: 0.7; stroke: #000000; stroke-linejoin: miter"/>
   </g>
   <g id="patch_66">
    <path d="M 372.706364 242.2 
L 377.289545 242.2 
L 377.289545 240.304506 
L 372.706364 240.304506 
z
" clip-path="url(#p1372e715c1)" style="fill: #87ceeb; opacity: 0.7; stroke: #000000; stroke-linejoin: miter"/>
   </g>
   <g id="patch_67">
    <path d="M 377.289545 242.2 
L 381.872727 242.2 
L 381.872727 240.304506 
L 377.289545 240.304506 
z
" clip-path="url(#p1372e715c1)" style="fill: #87ceeb; opacity: 0.7; stroke: #000000; stroke-linejoin: miter"/>
   </g>
   <g id="patch_68">
    <path d="M 381.872727 242.2 
L 386.455909 242.2 
L 386.455909 240.304506 
L 381.872727 240.304506 
z
" clip-path="url(#p1372e715c1)" style="fill: #87ceeb; opacity: 0.7; stroke: #000000; stroke-linejoin: miter"/>
   </g>
   <g id="patch_69">
    <path d="M 386.455909 242.2 
L 391.039091 242.2 
L 391.039091 240.77838 
L 386.455909 240.77838 
z
" clip-path="url(#p1372e715c1)" style="fill: #87ceeb; opacity: 0.7; stroke: #000000; stroke-linejoin: miter"/>
   </g>
   <g id="patch_70">
    <path d="M 391.039091 242.2 
L 395.622273 242.2 
L 395.622273 241.48919 
L 391.039091 241.48919 
z
" clip-path="url(#p1372e715c1)" style="fill: #87ceeb; opacity: 0.7; stroke: #000000; stroke-linejoin: miter"/>
   </g>
   <g id="patch_71">
    <path d="M 395.622273 242.2 
L 400.205455 242.2 
L 400.205455 241.015317 
L 395.622273 241.015317 
z
" clip-path="url(#p1372e715c1)" style="fill: #87ceeb; opacity: 0.7; stroke: #000000; stroke-linejoin: miter"/>
   </g>
   <g id="patch_72">
    <path d="M 400.205455 242.2 
L 404.788636 242.2 
L 404.788636 241.133785 
L 400.205455 241.133785 
z
" clip-path="url(#p1372e715c1)" style="fill: #87ceeb; opacity: 0.7; stroke: #000000; stroke-linejoin: miter"/>
   </g>
   <g id="patch_73">
    <path d="M 404.788636 242.2 
L 409.371818 242.2 
L 409.371818 241.370722 
L 404.788636 241.370722 
z
" clip-path="url(#p1372e715c1)" style="fill: #87ceeb; opacity: 0.7; stroke: #000000; stroke-linejoin: miter"/>
   </g>
   <g id="patch_74">
    <path d="M 409.371818 242.2 
L 413.955 242.2 
L 413.955 241.133785 
L 409.371818 241.133785 
z
" clip-path="url(#p1372e715c1)" style="fill: #87ceeb; opacity: 0.7; stroke: #000000; stroke-linejoin: miter"/>
   </g>
   <g id="patch_75">
    <path d="M 413.955 242.2 
L 418.538182 242.2 
L 418.538182 241.370722 
L 413.955 241.370722 
z
" clip-path="url(#p1372e715c1)" style="fill: #87ceeb; opacity: 0.7; stroke: #000000; stroke-linejoin: miter"/>
   </g>
   <g id="patch_76">
    <path d="M 418.538182 242.2 
L 423.121364 242.2 
L 423.121364 242.2 
L 418.538182 242.2 
z
" clip-path="url(#p1372e715c1)" style="fill: #87ceeb; opacity: 0.7; stroke: #000000; stroke-linejoin: miter"/>
   </g>
   <g id="patch_77">
    <path d="M 423.121364 242.2 
L 427.704545 242.2 
L 427.704545 241.963063 
L 423.121364 241.963063 
z
" clip-path="url(#p1372e715c1)" style="fill: #87ceeb; opacity: 0.7; stroke: #000000; stroke-linejoin: miter"/>
   </g>
   <g id="patch_78">
    <path d="M 427.704545 242.2 
L 432.287727 242.2 
L 432.287727 241.844595 
L 427.704545 241.844595 
z
" clip-path="url(#p1372e715c1)" style="fill: #87ceeb; opacity: 0.7; stroke: #000000; stroke-linejoin: miter"/>
   </g>
   <g id="patch_79">
    <path d="M 432.287727 242.2 
L 436.870909 242.2 
L 436.870909 242.2 
L 432.287727 242.2 
z
" clip-path="url(#p1372e715c1)" style="fill: #87ceeb; opacity: 0.7; stroke: #000000; stroke-linejoin: miter"/>
   </g>
   <g id="patch_80">
    <path d="M 436.870909 242.2 
L 441.454091 242.2 
L 441.454091 241.844595 
L 436.870909 241.844595 
z
" clip-path="url(#p1372e715c1)" style="fill: #87ceeb; opacity: 0.7; stroke: #000000; stroke-linejoin: miter"/>
   </g>
   <g id="patch_81">
    <path d="M 441.454091 242.2 
L 446.037273 242.2 
L 446.037273 241.963063 
L 441.454091 241.963063 
z
" clip-path="url(#p1372e715c1)" style="fill: #87ceeb; opacity: 0.7; stroke: #000000; stroke-linejoin: miter"/>
   </g>
   <g id="patch_82">
    <path d="M 446.037273 242.2 
L 450.620455 242.2 
L 450.620455 241.963063 
L 446.037273 241.963063 
z
" clip-path="url(#p1372e715c1)" style="fill: #87ceeb; opacity: 0.7; stroke: #000000; stroke-linejoin: miter"/>
   </g>
   <g id="patch_83">
    <path d="M 450.620455 242.2 
L 455.203636 242.2 
L 455.203636 241.963063 
L 450.620455 241.963063 
z
" clip-path="url(#p1372e715c1)" style="fill: #87ceeb; opacity: 0.7; stroke: #000000; stroke-linejoin: miter"/>
   </g>
   <g id="patch_84">
    <path d="M 455.203636 242.2 
L 459.786818 242.2 
L 459.786818 242.081532 
L 455.203636 242.081532 
z
" clip-path="url(#p1372e715c1)" style="fill: #87ceeb; opacity: 0.7; stroke: #000000; stroke-linejoin: miter"/>
   </g>
   <g id="patch_85">
    <path d="M 459.786818 242.2 
L 464.37 242.2 
L 464.37 241.963063 
L 459.786818 241.963063 
z
" clip-path="url(#p1372e715c1)" style="fill: #87ceeb; opacity: 0.7; stroke: #000000; stroke-linejoin: miter"/>
   </g>
   <g id="patch_86">
    <path d="M 464.37 242.2 
L 468.953182 242.2 
L 468.953182 241.963063 
L 464.37 241.963063 
z
" clip-path="url(#p1372e715c1)" style="fill: #87ceeb; opacity: 0.7; stroke: #000000; stroke-linejoin: miter"/>
   </g>
   <g id="patch_87">
    <path d="M 468.953182 242.2 
L 473.536364 242.2 
L 473.536364 241.963063 
L 468.953182 241.963063 
z
" clip-path="url(#p1372e715c1)" style="fill: #87ceeb; opacity: 0.7; stroke: #000000; stroke-linejoin: miter"/>
   </g>
   <g id="patch_88">
    <path d="M 473.536364 242.2 
L 478.119545 242.2 
L 478.119545 242.081532 
L 473.536364 242.081532 
z
" clip-path="url(#p1372e715c1)" style="fill: #87ceeb; opacity: 0.7; stroke: #000000; stroke-linejoin: miter"/>
   </g>
   <g id="patch_89">
    <path d="M 478.119545 242.2 
L 482.702727 242.2 
L 482.702727 242.081532 
L 478.119545 242.081532 
z
" clip-path="url(#p1372e715c1)" style="fill: #87ceeb; opacity: 0.7; stroke: #000000; stroke-linejoin: miter"/>
   </g>
   <g id="patch_90">
    <path d="M 482.702727 242.2 
L 487.285909 242.2 
L 487.285909 241.844595 
L 482.702727 241.844595 
z
" clip-path="url(#p1372e715c1)" style="fill: #87ceeb; opacity: 0.7; stroke: #000000; stroke-linejoin: miter"/>
   </g>
   <g id="patch_91">
    <path d="M 487.285909 242.2 
L 491.869091 242.2 
L 491.869091 242.2 
L 487.285909 242.2 
z
" clip-path="url(#p1372e715c1)" style="fill: #87ceeb; opacity: 0.7; stroke: #000000; stroke-linejoin: miter"/>
   </g>
   <g id="patch_92">
    <path d="M 491.869091 242.2 
L 496.452273 242.2 
L 496.452273 241.963063 
L 491.869091 241.963063 
z
" clip-path="url(#p1372e715c1)" style="fill: #87ceeb; opacity: 0.7; stroke: #000000; stroke-linejoin: miter"/>
   </g>
   <g id="patch_93">
    <path d="M 496.452273 242.2 
L 501.035455 242.2 
L 501.035455 242.081532 
L 496.452273 242.081532 
z
" clip-path="url(#p1372e715c1)" style="fill: #87ceeb; opacity: 0.7; stroke: #000000; stroke-linejoin: miter"/>
   </g>
   <g id="patch_94">
    <path d="M 501.035455 242.2 
L 505.618636 242.2 
L 505.618636 241.963063 
L 501.035455 241.963063 
z
" clip-path="url(#p1372e715c1)" style="fill: #87ceeb; opacity: 0.7; stroke: #000000; stroke-linejoin: miter"/>
   </g>
   <g id="patch_95">
    <path d="M 505.618636 242.2 
L 510.201818 242.2 
L 510.201818 242.081532 
L 505.618636 242.081532 
z
" clip-path="url(#p1372e715c1)" style="fill: #87ceeb; opacity: 0.7; stroke: #000000; stroke-linejoin: miter"/>
   </g>
   <g id="patch_96">
    <path d="M 510.201818 242.2 
L 514.785 242.2 
L 514.785 242.081532 
L 510.201818 242.081532 
z
" clip-path="url(#p1372e715c1)" style="fill: #87ceeb; opacity: 0.7; stroke: #000000; stroke-linejoin: miter"/>
   </g>
   <g id="patch_97">
    <path d="M 514.785 242.2 
L 519.368182 242.2 
L 519.368182 241.963063 
L 514.785 241.963063 
z
" clip-path="url(#p1372e715c1)" style="fill: #87ceeb; opacity: 0.7; stroke: #000000; stroke-linejoin: miter"/>
   </g>
   <g id="patch_98">
    <path d="M 519.368182 242.2 
L 523.951364 242.2 
L 523.951364 242.2 
L 519.368182 242.2 
z
" clip-path="url(#p1372e715c1)" style="fill: #87ceeb; opacity: 0.7; stroke: #000000; stroke-linejoin: miter"/>
   </g>
   <g id="patch_99">
    <path d="M 523.951364 242.2 
L 528.534545 242.2 
L 528.534545 242.2 
L 523.951364 242.2 
z
" clip-path="url(#p1372e715c1)" style="fill: #87ceeb; opacity: 0.7; stroke: #000000; stroke-linejoin: miter"/>
   </g>
   <g id="patch_100">
    <path d="M 528.534545 242.2 
L 533.117727 242.2 
L 533.117727 242.081532 
L 528.534545 242.081532 
z
" clip-path="url(#p1372e715c1)" style="fill: #87ceeb; opacity: 0.7; stroke: #000000; stroke-linejoin: miter"/>
   </g>
   <g id="patch_101">
    <path d="M 533.117727 242.2 
L 537.700909 242.2 
L 537.700909 242.2 
L 533.117727 242.2 
z
" clip-path="url(#p1372e715c1)" style="fill: #87ceeb; opacity: 0.7; stroke: #000000; stroke-linejoin: miter"/>
   </g>
   <g id="patch_102">
    <path d="M 537.700909 242.2 
L 542.284091 242.2 
L 542.284091 242.081532 
L 537.700909 242.081532 
z
" clip-path="url(#p1372e715c1)" style="fill: #87ceeb; opacity: 0.7; stroke: #000000; stroke-linejoin: miter"/>
   </g>
   <g id="matplotlib.axis_1">
    <g id="xtick_1">
     <g id="line2d_1">
      <defs>
       <path id="m792df99e38" d="M 0 0 
L 0 3.5 
" style="stroke: #000000; stroke-width: 0.8"/>
      </defs>
      <g>
       <use xlink:href="#m792df99e38" x="83.37138" y="242.2" style="stroke: #000000; stroke-width: 0.8"/>
      </g>
     </g>
     <g id="text_1">
      <!-- 0 -->
      <g transform="translate(80.19013 256.798437) scale(0.1 -0.1)">
       <defs>
        <path id="DejaVuSans-30" d="M 2034 4250 
Q 1547 4250 1301 3770 
Q 1056 3291 1056 2328 
Q 1056 1369 1301 889 
Q 1547 409 2034 409 
Q 2525 409 2770 889 
Q 3016 1369 3016 2328 
Q 3016 3291 2770 3770 
Q 2525 4250 2034 4250 
z
M 2034 4750 
Q 2819 4750 3233 4129 
Q 3647 3509 3647 2328 
Q 3647 1150 3233 529 
Q 2819 -91 2034 -91 
Q 1250 -91 836 529 
Q 422 1150 422 2328 
Q 422 3509 836 4129 
Q 1250 4750 2034 4750 
z
" transform="scale(0.015625)"/>
       </defs>
       <use xlink:href="#DejaVuSans-30"/>
      </g>
     </g>
    </g>
    <g id="xtick_2">
     <g id="line2d_2">
      <g>
       <use xlink:href="#m792df99e38" x="185.290642" y="242.2" style="stroke: #000000; stroke-width: 0.8"/>
      </g>
     </g>
     <g id="text_2">
      <!-- 200 -->
      <g transform="translate(175.746892 256.798437) scale(0.1 -0.1)">
       <defs>
        <path id="DejaVuSans-32" d="M 1228 531 
L 3431 531 
L 3431 0 
L 469 0 
L 469 531 
Q 828 903 1448 1529 
Q 2069 2156 2228 2338 
Q 2531 2678 2651 2914 
Q 2772 3150 2772 3378 
Q 2772 3750 2511 3984 
Q 2250 4219 1831 4219 
Q 1534 4219 1204 4116 
Q 875 4013 500 3803 
L 500 4441 
Q 881 4594 1212 4672 
Q 1544 4750 1819 4750 
Q 2544 4750 2975 4387 
Q 3406 4025 3406 3419 
Q 3406 3131 3298 2873 
Q 3191 2616 2906 2266 
Q 2828 2175 2409 1742 
Q 1991 1309 1228 531 
z
" transform="scale(0.015625)"/>
       </defs>
       <use xlink:href="#DejaVuSans-32"/>
       <use xlink:href="#DejaVuSans-30" x="63.623047"/>
       <use xlink:href="#DejaVuSans-30" x="127.246094"/>
      </g>
     </g>
    </g>
    <g id="xtick_3">
     <g id="line2d_3">
      <g>
       <use xlink:href="#m792df99e38" x="287.209904" y="242.2" style="stroke: #000000; stroke-width: 0.8"/>
      </g>
     </g>
     <g id="text_3">
      <!-- 400 -->
      <g transform="translate(277.666154 256.798437) scale(0.1 -0.1)">
       <defs>
        <path id="DejaVuSans-34" d="M 2419 4116 
L 825 1625 
L 2419 1625 
L 2419 4116 
z
M 2253 4666 
L 3047 4666 
L 3047 1625 
L 3713 1625 
L 3713 1100 
L 3047 1100 
L 3047 0 
L 2419 0 
L 2419 1100 
L 313 1100 
L 313 1709 
L 2253 4666 
z
" transform="scale(0.015625)"/>
       </defs>
       <use xlink:href="#DejaVuSans-34"/>
       <use xlink:href="#DejaVuSans-30" x="63.623047"/>
       <use xlink:href="#DejaVuSans-30" x="127.246094"/>
      </g>
     </g>
    </g>
    <g id="xtick_4">
     <g id="line2d_4">
      <g>
       <use xlink:href="#m792df99e38" x="389.129166" y="242.2" style="stroke: #000000; stroke-width: 0.8"/>
      </g>
     </g>
     <g id="text_4">
      <!-- 600 -->
      <g transform="translate(379.585416 256.798437) scale(0.1 -0.1)">
       <defs>
        <path id="DejaVuSans-36" d="M 2113 2584 
Q 1688 2584 1439 2293 
Q 1191 2003 1191 1497 
Q 1191 994 1439 701 
Q 1688 409 2113 409 
Q 2538 409 2786 701 
Q 3034 994 3034 1497 
Q 3034 2003 2786 2293 
Q 2538 2584 2113 2584 
z
M 3366 4563 
L 3366 3988 
Q 3128 4100 2886 4159 
Q 2644 4219 2406 4219 
Q 1781 4219 1451 3797 
Q 1122 3375 1075 2522 
Q 1259 2794 1537 2939 
Q 1816 3084 2150 3084 
Q 2853 3084 3261 2657 
Q 3669 2231 3669 1497 
Q 3669 778 3244 343 
Q 2819 -91 2113 -91 
Q 1303 -91 875 529 
Q 447 1150 447 2328 
Q 447 3434 972 4092 
Q 1497 4750 2381 4750 
Q 2619 4750 2861 4703 
Q 3103 4656 3366 4563 
z
" transform="scale(0.015625)"/>
       </defs>
       <use xlink:href="#DejaVuSans-36"/>
       <use xlink:href="#DejaVuSans-30" x="63.623047"/>
       <use xlink:href="#DejaVuSans-30" x="127.246094"/>
      </g>
     </g>
    </g>
    <g id="xtick_5">
     <g id="line2d_5">
      <g>
       <use xlink:href="#m792df99e38" x="491.048429" y="242.2" style="stroke: #000000; stroke-width: 0.8"/>
      </g>
     </g>
     <g id="text_5">
      <!-- 800 -->
      <g transform="translate(481.504679 256.798437) scale(0.1 -0.1)">
       <defs>
        <path id="DejaVuSans-38" d="M 2034 2216 
Q 1584 2216 1326 1975 
Q 1069 1734 1069 1313 
Q 1069 891 1326 650 
Q 1584 409 2034 409 
Q 2484 409 2743 651 
Q 3003 894 3003 1313 
Q 3003 1734 2745 1975 
Q 2488 2216 2034 2216 
z
M 1403 2484 
Q 997 2584 770 2862 
Q 544 3141 544 3541 
Q 544 4100 942 4425 
Q 1341 4750 2034 4750 
Q 2731 4750 3128 4425 
Q 3525 4100 3525 3541 
Q 3525 3141 3298 2862 
Q 3072 2584 2669 2484 
Q 3125 2378 3379 2068 
Q 3634 1759 3634 1313 
Q 3634 634 3220 271 
Q 2806 -91 2034 -91 
Q 1263 -91 848 271 
Q 434 634 434 1313 
Q 434 1759 690 2068 
Q 947 2378 1403 2484 
z
M 1172 3481 
Q 1172 3119 1398 2916 
Q 1625 2713 2034 2713 
Q 2441 2713 2670 2916 
Q 2900 3119 2900 3481 
Q 2900 3844 2670 4047 
Q 2441 4250 2034 4250 
Q 1625 4250 1398 4047 
Q 1172 3844 1172 3481 
z
" transform="scale(0.015625)"/>
       </defs>
       <use xlink:href="#DejaVuSans-38"/>
       <use xlink:href="#DejaVuSans-30" x="63.623047"/>
       <use xlink:href="#DejaVuSans-30" x="127.246094"/>
      </g>
     </g>
    </g>
    <g id="text_6">
     <!-- Seconds -->
     <g transform="translate(283.715156 273.515938) scale(0.14 -0.14)">
      <defs>
       <path id="DejaVuSans-53" d="M 3425 4513 
L 3425 3897 
Q 3066 4069 2747 4153 
Q 2428 4238 2131 4238 
Q 1616 4238 1336 4038 
Q 1056 3838 1056 3469 
Q 1056 3159 1242 3001 
Q 1428 2844 1947 2747 
L 2328 2669 
Q 3034 2534 3370 2195 
Q 3706 1856 3706 1288 
Q 3706 609 3251 259 
Q 2797 -91 1919 -91 
Q 1588 -91 1214 -16 
Q 841 59 441 206 
L 441 856 
Q 825 641 1194 531 
Q 1563 422 1919 422 
Q 2459 422 2753 634 
Q 3047 847 3047 1241 
Q 3047 1584 2836 1778 
Q 2625 1972 2144 2069 
L 1759 2144 
Q 1053 2284 737 2584 
Q 422 2884 422 3419 
Q 422 4038 858 4394 
Q 1294 4750 2059 4750 
Q 2388 4750 2728 4690 
Q 3069 4631 3425 4513 
z
" transform="scale(0.015625)"/>
       <path id="DejaVuSans-65" d="M 3597 1894 
L 3597 1613 
L 953 1613 
Q 991 1019 1311 708 
Q 1631 397 2203 397 
Q 2534 397 2845 478 
Q 3156 559 3463 722 
L 3463 178 
Q 3153 47 2828 -22 
Q 2503 -91 2169 -91 
Q 1331 -91 842 396 
Q 353 884 353 1716 
Q 353 2575 817 3079 
Q 1281 3584 2069 3584 
Q 2775 3584 3186 3129 
Q 3597 2675 3597 1894 
z
M 3022 2063 
Q 3016 2534 2758 2815 
Q 2500 3097 2075 3097 
Q 1594 3097 1305 2825 
Q 1016 2553 972 2059 
L 3022 2063 
z
" transform="scale(0.015625)"/>
       <path id="DejaVuSans-63" d="M 3122 3366 
L 3122 2828 
Q 2878 2963 2633 3030 
Q 2388 3097 2138 3097 
Q 1578 3097 1268 2742 
Q 959 2388 959 1747 
Q 959 1106 1268 751 
Q 1578 397 2138 397 
Q 2388 397 2633 464 
Q 2878 531 3122 666 
L 3122 134 
Q 2881 22 2623 -34 
Q 2366 -91 2075 -91 
Q 1284 -91 818 406 
Q 353 903 353 1747 
Q 353 2603 823 3093 
Q 1294 3584 2113 3584 
Q 2378 3584 2631 3529 
Q 2884 3475 3122 3366 
z
" transform="scale(0.015625)"/>
       <path id="DejaVuSans-6f" d="M 1959 3097 
Q 1497 3097 1228 2736 
Q 959 2375 959 1747 
Q 959 1119 1226 758 
Q 1494 397 1959 397 
Q 2419 397 2687 759 
Q 2956 1122 2956 1747 
Q 2956 2369 2687 2733 
Q 2419 3097 1959 3097 
z
M 1959 3584 
Q 2709 3584 3137 3096 
Q 3566 2609 3566 1747 
Q 3566 888 3137 398 
Q 2709 -91 1959 -91 
Q 1206 -91 779 398 
Q 353 888 353 1747 
Q 353 2609 779 3096 
Q 1206 3584 1959 3584 
z
" transform="scale(0.015625)"/>
       <path id="DejaVuSans-6e" d="M 3513 2113 
L 3513 0 
L 2938 0 
L 2938 2094 
Q 2938 2591 2744 2837 
Q 2550 3084 2163 3084 
Q 1697 3084 1428 2787 
Q 1159 2491 1159 1978 
L 1159 0 
L 581 0 
L 581 3500 
L 1159 3500 
L 1159 2956 
Q 1366 3272 1645 3428 
Q 1925 3584 2291 3584 
Q 2894 3584 3203 3211 
Q 3513 2838 3513 2113 
z
" transform="scale(0.015625)"/>
       <path id="DejaVuSans-64" d="M 2906 2969 
L 2906 4863 
L 3481 4863 
L 3481 0 
L 2906 0 
L 2906 525 
Q 2725 213 2448 61 
Q 2172 -91 1784 -91 
Q 1150 -91 751 415 
Q 353 922 353 1747 
Q 353 2572 751 3078 
Q 1150 3584 1784 3584 
Q 2172 3584 2448 3432 
Q 2725 3281 2906 2969 
z
M 947 1747 
Q 947 1113 1208 752 
Q 1469 391 1925 391 
Q 2381 391 2643 752 
Q 2906 1113 2906 1747 
Q 2906 2381 2643 2742 
Q 2381 3103 1925 3103 
Q 1469 3103 1208 2742 
Q 947 2381 947 1747 
z
" transform="scale(0.015625)"/>
       <path id="DejaVuSans-73" d="M 2834 3397 
L 2834 2853 
Q 2591 2978 2328 3040 
Q 2066 3103 1784 3103 
Q 1356 3103 1142 2972 
Q 928 2841 928 2578 
Q 928 2378 1081 2264 
Q 1234 2150 1697 2047 
L 1894 2003 
Q 2506 1872 2764 1633 
Q 3022 1394 3022 966 
Q 3022 478 2636 193 
Q 2250 -91 1575 -91 
Q 1294 -91 989 -36 
Q 684 19 347 128 
L 347 722 
Q 666 556 975 473 
Q 1284 391 1588 391 
Q 1994 391 2212 530 
Q 2431 669 2431 922 
Q 2431 1156 2273 1281 
Q 2116 1406 1581 1522 
L 1381 1569 
Q 847 1681 609 1914 
Q 372 2147 372 2553 
Q 372 3047 722 3315 
Q 1072 3584 1716 3584 
Q 2034 3584 2315 3537 
Q 2597 3491 2834 3397 
z
" transform="scale(0.015625)"/>
      </defs>
      <use xlink:href="#DejaVuSans-53"/>
      <use xlink:href="#DejaVuSans-65" x="63.476562"/>
      <use xlink:href="#DejaVuSans-63" x="125"/>
      <use xlink:href="#DejaVuSans-6f" x="179.980469"/>
      <use xlink:href="#DejaVuSans-6e" x="241.162109"/>
      <use xlink:href="#DejaVuSans-64" x="304.541016"/>
      <use xlink:href="#DejaVuSans-73" x="368.017578"/>
     </g>
    </g>
   </g>
   <g id="matplotlib.axis_2">
    <g id="ytick_1">
     <g id="line2d_6">
      <defs>
       <path id="m7683e07bfa" d="M 0 0 
L -3.5 0 
" style="stroke: #000000; stroke-width: 0.8"/>
      </defs>
      <g>
       <use xlink:href="#m7683e07bfa" x="61.05" y="242.2" style="stroke: #000000; stroke-width: 0.8"/>
      </g>
     </g>
     <g id="text_7">
      <!-- 0 -->
      <g transform="translate(47.6875 245.999219) scale(0.1 -0.1)">
       <use xlink:href="#DejaVuSans-30"/>
      </g>
     </g>
    </g>
    <g id="ytick_2">
     <g id="line2d_7">
      <g>
       <use xlink:href="#m7683e07bfa" x="61.05" y="218.50633" style="stroke: #000000; stroke-width: 0.8"/>
      </g>
     </g>
     <g id="text_8">
      <!-- 200 -->
      <g transform="translate(34.9625 222.305549) scale(0.1 -0.1)">
       <use xlink:href="#DejaVuSans-32"/>
       <use xlink:href="#DejaVuSans-30" x="63.623047"/>
       <use xlink:href="#DejaVuSans-30" x="127.246094"/>
      </g>
     </g>
    </g>
    <g id="ytick_3">
     <g id="line2d_8">
      <g>
       <use xlink:href="#m7683e07bfa" x="61.05" y="194.812661" style="stroke: #000000; stroke-width: 0.8"/>
      </g>
     </g>
     <g id="text_9">
      <!-- 400 -->
      <g transform="translate(34.9625 198.61188) scale(0.1 -0.1)">
       <use xlink:href="#DejaVuSans-34"/>
       <use xlink:href="#DejaVuSans-30" x="63.623047"/>
       <use xlink:href="#DejaVuSans-30" x="127.246094"/>
      </g>
     </g>
    </g>
    <g id="ytick_4">
     <g id="line2d_9">
      <g>
       <use xlink:href="#m7683e07bfa" x="61.05" y="171.118991" style="stroke: #000000; stroke-width: 0.8"/>
      </g>
     </g>
     <g id="text_10">
      <!-- 600 -->
      <g transform="translate(34.9625 174.91821) scale(0.1 -0.1)">
       <use xlink:href="#DejaVuSans-36"/>
       <use xlink:href="#DejaVuSans-30" x="63.623047"/>
       <use xlink:href="#DejaVuSans-30" x="127.246094"/>
      </g>
     </g>
    </g>
    <g id="ytick_5">
     <g id="line2d_10">
      <g>
       <use xlink:href="#m7683e07bfa" x="61.05" y="147.425322" style="stroke: #000000; stroke-width: 0.8"/>
      </g>
     </g>
     <g id="text_11">
      <!-- 800 -->
      <g transform="translate(34.9625 151.22454) scale(0.1 -0.1)">
       <use xlink:href="#DejaVuSans-38"/>
       <use xlink:href="#DejaVuSans-30" x="63.623047"/>
       <use xlink:href="#DejaVuSans-30" x="127.246094"/>
      </g>
     </g>
    </g>
    <g id="ytick_6">
     <g id="line2d_11">
      <g>
       <use xlink:href="#m7683e07bfa" x="61.05" y="123.731652" style="stroke: #000000; stroke-width: 0.8"/>
      </g>
     </g>
     <g id="text_12">
      <!-- 1000 -->
      <g transform="translate(28.6 127.530871) scale(0.1 -0.1)">
       <defs>
        <path id="DejaVuSans-31" d="M 794 531 
L 1825 531 
L 1825 4091 
L 703 3866 
L 703 4441 
L 1819 4666 
L 2450 4666 
L 2450 531 
L 3481 531 
L 3481 0 
L 794 0 
L 794 531 
z
" transform="scale(0.015625)"/>
       </defs>
       <use xlink:href="#DejaVuSans-31"/>
       <use xlink:href="#DejaVuSans-30" x="63.623047"/>
       <use xlink:href="#DejaVuSans-30" x="127.246094"/>
       <use xlink:href="#DejaVuSans-30" x="190.869141"/>
      </g>
     </g>
    </g>
    <g id="ytick_7">
     <g id="line2d_12">
      <g>
       <use xlink:href="#m7683e07bfa" x="61.05" y="100.037982" style="stroke: #000000; stroke-width: 0.8"/>
      </g>
     </g>
     <g id="text_13">
      <!-- 1200 -->
      <g transform="translate(28.6 103.837201) scale(0.1 -0.1)">
       <use xlink:href="#DejaVuSans-31"/>
       <use xlink:href="#DejaVuSans-32" x="63.623047"/>
       <use xlink:href="#DejaVuSans-30" x="127.246094"/>
       <use xlink:href="#DejaVuSans-30" x="190.869141"/>
      </g>
     </g>
    </g>
    <g id="ytick_8">
     <g id="line2d_13">
      <g>
       <use xlink:href="#m7683e07bfa" x="61.05" y="76.344313" style="stroke: #000000; stroke-width: 0.8"/>
      </g>
     </g>
     <g id="text_14">
      <!-- 1400 -->
      <g transform="translate(28.6 80.143531) scale(0.1 -0.1)">
       <use xlink:href="#DejaVuSans-31"/>
       <use xlink:href="#DejaVuSans-34" x="63.623047"/>
       <use xlink:href="#DejaVuSans-30" x="127.246094"/>
       <use xlink:href="#DejaVuSans-30" x="190.869141"/>
      </g>
     </g>
    </g>
    <g id="ytick_9">
     <g id="line2d_14">
      <g>
       <use xlink:href="#m7683e07bfa" x="61.05" y="52.650643" style="stroke: #000000; stroke-width: 0.8"/>
      </g>
     </g>
     <g id="text_15">
      <!-- 1600 -->
      <g transform="translate(28.6 56.449862) scale(0.1 -0.1)">
       <use xlink:href="#DejaVuSans-31"/>
       <use xlink:href="#DejaVuSans-36" x="63.623047"/>
       <use xlink:href="#DejaVuSans-30" x="127.246094"/>
       <use xlink:href="#DejaVuSans-30" x="190.869141"/>
      </g>
     </g>
    </g>
    <g id="text_16">
     <!-- Frequency -->
     <g transform="translate(21.688437 178.661563) rotate(-90) scale(0.14 -0.14)">
      <defs>
       <path id="DejaVuSans-46" d="M 628 4666 
L 3309 4666 
L 3309 4134 
L 1259 4134 
L 1259 2759 
L 3109 2759 
L 3109 2228 
L 1259 2228 
L 1259 0 
L 628 0 
L 628 4666 
z
" transform="scale(0.015625)"/>
       <path id="DejaVuSans-72" d="M 2631 2963 
Q 2534 3019 2420 3045 
Q 2306 3072 2169 3072 
Q 1681 3072 1420 2755 
Q 1159 2438 1159 1844 
L 1159 0 
L 581 0 
L 581 3500 
L 1159 3500 
L 1159 2956 
Q 1341 3275 1631 3429 
Q 1922 3584 2338 3584 
Q 2397 3584 2469 3576 
Q 2541 3569 2628 3553 
L 2631 2963 
z
" transform="scale(0.015625)"/>
       <path id="DejaVuSans-71" d="M 947 1747 
Q 947 1113 1208 752 
Q 1469 391 1925 391 
Q 2381 391 2643 752 
Q 2906 1113 2906 1747 
Q 2906 2381 2643 2742 
Q 2381 3103 1925 3103 
Q 1469 3103 1208 2742 
Q 947 2381 947 1747 
z
M 2906 525 
Q 2725 213 2448 61 
Q 2172 -91 1784 -91 
Q 1150 -91 751 415 
Q 353 922 353 1747 
Q 353 2572 751 3078 
Q 1150 3584 1784 3584 
Q 2172 3584 2448 3432 
Q 2725 3281 2906 2969 
L 2906 3500 
L 3481 3500 
L 3481 -1331 
L 2906 -1331 
L 2906 525 
z
" transform="scale(0.015625)"/>
       <path id="DejaVuSans-75" d="M 544 1381 
L 544 3500 
L 1119 3500 
L 1119 1403 
Q 1119 906 1312 657 
Q 1506 409 1894 409 
Q 2359 409 2629 706 
Q 2900 1003 2900 1516 
L 2900 3500 
L 3475 3500 
L 3475 0 
L 2900 0 
L 2900 538 
Q 2691 219 2414 64 
Q 2138 -91 1772 -91 
Q 1169 -91 856 284 
Q 544 659 544 1381 
z
M 1991 3584 
L 1991 3584 
z
" transform="scale(0.015625)"/>
       <path id="DejaVuSans-79" d="M 2059 -325 
Q 1816 -950 1584 -1140 
Q 1353 -1331 966 -1331 
L 506 -1331 
L 506 -850 
L 844 -850 
Q 1081 -850 1212 -737 
Q 1344 -625 1503 -206 
L 1606 56 
L 191 3500 
L 800 3500 
L 1894 763 
L 2988 3500 
L 3597 3500 
L 2059 -325 
z
" transform="scale(0.015625)"/>
      </defs>
      <use xlink:href="#DejaVuSans-46"/>
      <use xlink:href="#DejaVuSans-72" x="50.269531"/>
      <use xlink:href="#DejaVuSans-65" x="89.132812"/>
      <use xlink:href="#DejaVuSans-71" x="150.65625"/>
      <use xlink:href="#DejaVuSans-75" x="214.132812"/>
      <use xlink:href="#DejaVuSans-65" x="277.511719"/>
      <use xlink:href="#DejaVuSans-6e" x="339.035156"/>
      <use xlink:href="#DejaVuSans-63" x="402.414062"/>
      <use xlink:href="#DejaVuSans-79" x="457.394531"/>
     </g>
    </g>
   </g>
   <g id="line2d_15">
    <path d="M 101.716847 242.2 
L 101.716847 42.8 
" clip-path="url(#p1372e715c1)" style="fill: none; stroke-dasharray: 5.55,2.4; stroke-dashoffset: 0; stroke: #b40426; stroke-width: 1.5"/>
   </g>
   <g id="patch_103">
    <path d="M 61.05 242.2 
L 61.05 42.8 
" style="fill: none; stroke: #000000; stroke-width: 0.8; stroke-linejoin: miter; stroke-linecap: square"/>
   </g>
   <g id="patch_104">
    <path d="M 565.2 242.2 
L 565.2 42.8 
" style="fill: none; stroke: #000000; stroke-width: 0.8; stroke-linejoin: miter; stroke-linecap: square"/>
   </g>
   <g id="patch_105">
    <path d="M 61.05 242.2 
L 565.2 242.2 
" style="fill: none; stroke: #000000; stroke-width: 0.8; stroke-linejoin: miter; stroke-linecap: square"/>
   </g>
   <g id="patch_106">
    <path d="M 61.05 42.8 
L 565.2 42.8 
" style="fill: none; stroke: #000000; stroke-width: 0.8; stroke-linejoin: miter; stroke-linecap: square"/>
   </g>
   <g id="text_17">
    <!-- Isolation -->
    <g transform="translate(279.25375 22.8) scale(0.16 -0.16)">
     <defs>
      <path id="DejaVuSans-49" d="M 628 4666 
L 1259 4666 
L 1259 0 
L 628 0 
L 628 4666 
z
" transform="scale(0.015625)"/>
      <path id="DejaVuSans-6c" d="M 603 4863 
L 1178 4863 
L 1178 0 
L 603 0 
L 603 4863 
z
" transform="scale(0.015625)"/>
      <path id="DejaVuSans-61" d="M 2194 1759 
Q 1497 1759 1228 1600 
Q 959 1441 959 1056 
Q 959 750 1161 570 
Q 1363 391 1709 391 
Q 2188 391 2477 730 
Q 2766 1069 2766 1631 
L 2766 1759 
L 2194 1759 
z
M 3341 1997 
L 3341 0 
L 2766 0 
L 2766 531 
Q 2569 213 2275 61 
Q 1981 -91 1556 -91 
Q 1019 -91 701 211 
Q 384 513 384 1019 
Q 384 1609 779 1909 
Q 1175 2209 1959 2209 
L 2766 2209 
L 2766 2266 
Q 2766 2663 2505 2880 
Q 2244 3097 1772 3097 
Q 1472 3097 1187 3025 
Q 903 2953 641 2809 
L 641 3341 
Q 956 3463 1253 3523 
Q 1550 3584 1831 3584 
Q 2591 3584 2966 3190 
Q 3341 2797 3341 1997 
z
" transform="scale(0.015625)"/>
      <path id="DejaVuSans-74" d="M 1172 4494 
L 1172 3500 
L 2356 3500 
L 2356 3053 
L 1172 3053 
L 1172 1153 
Q 1172 725 1289 603 
Q 1406 481 1766 481 
L 2356 481 
L 2356 0 
L 1766 0 
Q 1100 0 847 248 
Q 594 497 594 1153 
L 594 3053 
L 172 3053 
L 172 3500 
L 594 3500 
L 594 4494 
L 1172 4494 
z
" transform="scale(0.015625)"/>
      <path id="DejaVuSans-69" d="M 603 3500 
L 1178 3500 
L 1178 0 
L 603 0 
L 603 3500 
z
M 603 4863 
L 1178 4863 
L 1178 4134 
L 603 4134 
L 603 4863 
z
" transform="scale(0.015625)"/>
     </defs>
     <use xlink:href="#DejaVuSans-49"/>
     <use xlink:href="#DejaVuSans-73" x="29.492188"/>
     <use xlink:href="#DejaVuSans-6f" x="81.591797"/>
     <use xlink:href="#DejaVuSans-6c" x="142.773438"/>
     <use xlink:href="#DejaVuSans-61" x="170.556641"/>
     <use xlink:href="#DejaVuSans-74" x="231.835938"/>
     <use xlink:href="#DejaVuSans-69" x="271.044922"/>
     <use xlink:href="#DejaVuSans-6f" x="298.828125"/>
     <use xlink:href="#DejaVuSans-6e" x="360.009766"/>
    </g>
   </g>
  </g>
 </g>
 <defs>
  <clipPath id="p1372e715c1">
   <rect x="61.05" y="42.8" width="504.15" height="199.4"/>
  </clipPath>
 </defs>
</svg>
